<?xml version="1.0" encoding="UTF-8"?>
<svg xmlns="http://www.w3.org/2000/svg" width="152" height="30" viewBox="0 0 152 30" fill="none">
  <path d="M0.472598 0.965165C0.637221 1.13877 0.517495 1.3902 0.634228 1.6117C0.783885 0.872388 0.783886 0.875392 1.59204 0.875392C5.39933 0.875392 9.20662 0.875392 13.0139 0.875392C13.1995 0.875392 13.3851 0.869402 13.5706 0.833484C13.8251 0.785593 13.9268 0.902328 13.9089 1.17171C13.8041 2.63536 13.7083 4.099 13.6185 5.56564C13.5916 6.01162 13.5976 6.00563 13.1396 5.9757C12.5081 5.9308 11.8735 5.89191 11.239 5.87694C10.9696 5.87095 10.9217 5.76022 10.9187 5.51778C10.9067 4.66772 10.8588 3.81466 10.8409 2.96461C10.8349 2.7072 10.7661 2.59346 10.4757 2.59646C9.29342 2.61142 8.11113 2.60843 6.92883 2.59646C6.67441 2.59646 6.62054 2.68325 6.62054 2.9227C6.63251 5.32919 6.64149 7.73569 6.63251 10.1422C6.63251 10.4535 6.73128 10.5193 7.02162 10.4864C7.3778 10.4475 7.74596 10.4325 8.10215 10.4654C8.42241 10.4954 8.54214 10.3727 8.59302 10.0823C8.65887 9.69322 8.76363 9.3131 8.83248 8.92399C8.8654 8.7414 8.94921 8.66954 9.1288 8.67253C9.56281 8.67852 9.99981 8.68151 10.4338 8.67253C10.6164 8.66954 10.6733 8.7384 10.6703 8.912C10.6433 10.5283 10.6284 12.1446 10.6912 13.7609C10.7002 13.9644 10.6134 14.0543 10.4099 14.0543C9.97586 14.0543 9.53886 14.0572 9.10485 14.0662C8.92526 14.0692 8.84146 13.9944 8.80853 13.8148C8.72772 13.3778 8.62296 12.9468 8.53615 12.5128C8.49425 12.3092 8.3865 12.2254 8.17398 12.2284C7.75195 12.2374 7.32692 12.2464 6.90488 12.2254C6.65346 12.2134 6.58761 12.2943 6.58761 12.5367C6.59958 13.6591 6.5936 14.7846 6.5906 15.907C6.5906 17.3497 6.5906 18.7954 6.57863 20.2381C6.57863 20.4686 6.63849 20.5344 6.86597 20.5344C8.09915 20.5254 9.32934 20.5284 10.5625 20.5344C10.7601 20.5344 10.8499 20.4835 10.8678 20.271C10.9546 19.2773 11.0624 18.2836 11.1462 17.2868C11.1671 17.0474 11.206 16.9277 11.4874 16.9456C12.2207 16.9905 12.9541 17.0205 13.6874 17.0354C13.9149 17.0414 13.9897 17.1132 13.9897 17.3377C13.9867 18.954 14.0316 20.5703 14.1483 22.1836C14.1633 22.4111 14.1034 22.4889 13.867 22.4859C9.59872 22.474 5.33049 22.468 1.06225 22.471C0.756947 22.471 0.65518 22.3782 0.703071 22.0909C0.771913 21.6748 0.777899 21.2558 0.75994 20.8367C0.750961 20.6182 0.840755 20.5374 1.06225 20.5195C1.47231 20.4895 1.87639 20.4117 2.28346 20.3788C2.51094 20.3608 2.57379 20.268 2.56781 20.0525C2.55284 19.5826 2.56182 19.1157 2.56182 18.6457C2.56182 13.5095 2.55883 8.37624 2.5708 3.23999C2.5708 2.91972 2.49298 2.8419 2.16672 2.82394C1.59802 2.79401 1.03531 2.68027 0.469604 2.60245V0.971157L0.472598 0.965165Z" fill="white"></path>
  <path d="M66.4408 8.96881C67.3626 7.80746 68.506 7.21484 69.8978 7.08314C71.7326 6.91253 73.2502 7.75658 74.0913 9.38186C74.6839 10.5282 74.8635 11.7704 74.9832 13.0215C75.1628 14.9222 75.1389 16.8139 74.63 18.6786C74.0703 20.7259 72.8581 22.1686 70.715 22.5966C69.5327 22.8301 68.3055 22.8032 67.189 22.1956C66.8628 22.019 66.8688 22.2135 66.8688 22.432C66.8777 23.5425 66.8927 24.653 66.8957 25.7634C66.8957 26.4309 66.8867 27.0954 66.8688 27.7628C66.8628 27.9993 66.9256 28.125 67.186 28.1609C67.5303 28.2088 67.8655 28.3106 68.2067 28.3764C68.3683 28.4064 68.4492 28.4692 68.4372 28.6428C68.4132 28.9751 68.4013 29.3073 68.3803 29.6395C68.3713 29.8072 68.3115 29.9029 68.1049 29.8999C66.0516 29.885 64.0013 29.879 61.948 29.876C61.7654 29.876 61.6996 29.8072 61.7146 29.6365C61.7415 29.3043 61.7684 28.9721 61.7894 28.6398C61.8014 28.4662 61.9181 28.4124 62.0588 28.3824C62.3611 28.3136 62.6634 28.2358 62.9687 28.1879C63.2261 28.146 63.3159 28.0262 63.3159 27.7658C63.3069 22.5697 63.3069 17.3736 63.3069 12.1775C63.3069 11.3753 63.3069 10.5732 63.3189 9.77099C63.3219 9.51058 63.2441 9.39385 62.9597 9.39385C62.6125 9.39385 62.2653 9.33698 61.9181 9.32501C61.6697 9.31603 61.5559 9.22622 61.5679 8.96881C61.5829 8.67249 61.5829 8.37617 61.5589 8.07985C61.538 7.83142 61.6158 7.72369 61.8702 7.69076C62.7711 7.58301 63.6691 7.45728 64.567 7.33456C64.9591 7.28068 65.3572 7.23579 65.7433 7.15797C65.9918 7.10709 66.0606 7.19988 66.1265 7.42137C66.2731 7.90626 66.342 8.4031 66.4437 8.96881H66.4408ZM66.8927 15.3472C66.8927 15.3472 66.9047 15.3472 66.9107 15.3472C66.9107 16.8408 66.9167 18.3344 66.9047 19.825C66.9047 20.1243 67.0154 20.265 67.2998 20.3488C68.1289 20.5942 68.973 20.5344 69.817 20.4895C70.5743 20.4476 71.0382 20.0824 71.137 19.3102C71.149 19.2144 71.1849 19.1186 71.2029 19.0228C71.4902 17.4005 71.6009 15.7693 71.5201 14.123C71.4692 13.1144 71.4423 12.1056 71.1879 11.1149C70.7689 9.48065 69.41 9.10652 68.1798 9.40883C67.4165 9.5974 66.8897 10.2738 66.8927 11.0521C66.8927 12.4828 66.8927 13.9135 66.8927 15.3472Z" fill="white"></path>
  <path d="M19.9294 8.76229C20.2167 8.65453 20.3664 8.46896 20.546 8.31931C21.8629 7.23279 23.3805 6.81375 25.0387 7.19388C26.8346 7.60394 27.8343 8.88501 27.966 10.7108C28.1306 13.0036 28.0229 15.2993 28.0498 17.5951C28.0588 18.496 28.0468 19.397 28.0259 20.2979C28.0199 20.5374 28.1186 20.6361 28.3341 20.6661C28.6664 20.714 28.9956 20.7828 29.3279 20.8097C29.5284 20.8247 29.6272 20.8756 29.6122 21.0881C29.5883 21.4712 29.5793 21.8514 29.5554 22.2345C29.5464 22.3692 29.5344 22.4949 29.3279 22.4919C27.7864 22.4739 26.2419 22.459 24.7005 22.465C24.4101 22.465 24.3622 22.3721 24.3622 22.1058C24.3772 18.7115 24.3772 15.3173 24.3832 11.9231C24.3832 11.5759 24.3413 11.2406 24.2335 10.9054C24.0001 10.1661 23.4763 9.80688 22.731 9.71709C21.9288 9.62131 21.2194 9.77997 20.7016 10.4564C20.5609 10.639 20.5819 10.8515 20.5819 11.061C20.5909 13.9854 20.5998 16.9126 20.6088 19.837C20.6088 19.8489 20.6088 19.8609 20.6088 19.8729C20.6068 20.4336 20.8942 20.7489 21.4708 20.8187C21.9298 20.8746 22.1513 21.137 22.1353 21.6059C22.1134 22.2185 21.7911 22.5258 21.1685 22.5278C19.3756 22.5278 17.5857 22.5188 15.7928 22.5338C15.4366 22.5368 15.3708 22.414 15.4217 22.1058C15.4666 21.8274 15.4786 21.5431 15.4995 21.2587C15.5175 21.0043 15.6252 20.8516 15.9036 20.8187C16.173 20.7858 16.4394 20.714 16.7087 20.6691C16.9512 20.6272 17.023 20.4865 17.02 20.25C17.014 16.8199 17.014 13.3867 17.017 9.95655C17.017 9.74404 16.9422 9.65125 16.7237 9.61833C16.3645 9.56146 16.0053 9.54052 15.6462 9.56147C15.3977 9.57644 15.3109 9.47166 15.3109 9.24418C15.3049 8.83711 15.1882 8.38214 15.3618 8.03793C15.5654 7.63984 16.0832 7.80147 16.4633 7.73862C17.3942 7.58297 18.334 7.47823 19.2679 7.34354C19.5103 7.30762 19.6301 7.38545 19.7109 7.61293C19.8396 7.9751 19.9324 8.33726 19.9294 8.76229Z" fill="white"></path>
  <path d="M108.014 16.781C108.014 15.0539 108.019 13.3239 108.011 11.5968C108.008 10.8964 107.804 10.2649 107.113 9.93264C106.586 9.67523 106.017 9.62133 105.439 9.75902C105.158 9.82487 104.898 9.92965 104.673 10.1182C104.392 10.3577 104.254 10.636 104.254 11.0192C104.266 14.129 104.266 17.2389 104.257 20.3488C104.257 20.6212 104.362 20.717 104.619 20.7439C104.94 20.7768 105.257 20.8457 105.577 20.8966C105.79 20.9295 105.87 21.0462 105.849 21.2587C105.814 21.6029 105.79 21.9471 105.76 22.2913C105.742 22.4829 105.655 22.5547 105.442 22.5547C103.452 22.5428 101.461 22.5338 99.471 22.5488C99.1568 22.5488 99.0879 22.4739 99.1179 22.1836C99.1508 21.8783 99.1388 21.567 99.1328 21.2587C99.1298 21.0193 99.2376 20.8966 99.471 20.8517C99.7524 20.8008 100.028 20.723 100.309 20.6721C100.593 20.6212 100.68 20.4655 100.677 20.1812C100.659 18.7505 100.662 17.3168 100.662 15.886C100.662 13.9225 100.662 11.962 100.671 9.99848C100.671 9.75005 100.602 9.64827 100.348 9.61236C99.9889 9.56147 99.6297 9.54653 99.2705 9.5585C99.061 9.56449 98.9742 9.48665 98.9772 9.28312C98.9802 8.99877 98.9772 8.71443 98.9772 8.43307C98.9802 7.84342 98.9802 7.83743 99.5579 7.78954C100.698 7.69376 101.821 7.47825 102.955 7.34056C103.165 7.31362 103.278 7.34955 103.332 7.57104C103.404 7.87036 103.548 8.14872 103.551 8.46599C103.551 8.73238 103.664 8.72341 103.841 8.58573C104.104 8.3792 104.356 8.1547 104.64 7.97811C106.134 7.04125 107.723 6.73294 109.393 7.43932C110.851 8.05591 111.569 9.22923 111.665 10.7707C111.722 11.6687 111.71 12.5726 111.71 13.4735C111.71 15.7453 111.704 18.0141 111.689 20.2859C111.689 20.5194 111.776 20.6332 111.994 20.6631C112.327 20.711 112.659 20.7619 112.991 20.7978C113.153 20.8157 113.249 20.8636 113.243 21.0402C113.231 21.4353 113.228 21.8304 113.216 22.2255C113.21 22.3871 113.165 22.4859 112.949 22.4829C111.432 22.4679 109.914 22.465 108.397 22.4829C108.076 22.4859 108.014 22.3782 108.017 22.0818C108.031 20.3159 108.022 18.5529 108.022 16.787L108.014 16.781Z" fill="white"></path>
  <path d="M139.086 14.4732C139.086 16.4098 139.092 18.3494 139.08 20.286C139.08 20.5344 139.158 20.6392 139.397 20.6781C139.726 20.732 140.053 20.8217 140.382 20.8726C140.571 20.9025 140.645 20.9923 140.633 21.1659C140.609 21.4982 140.577 21.8304 140.55 22.1627C140.535 22.3692 140.433 22.468 140.214 22.468C138.957 22.462 137.7 22.462 136.443 22.462C136.245 22.462 136.153 22.3662 136.114 22.1836C136.06 21.9292 136 21.6778 135.94 21.4264C135.874 21.154 135.749 21.1061 135.536 21.3126C135.051 21.7885 134.482 22.1477 133.848 22.3752C132.187 22.9678 130.6 22.7583 129.176 21.7376C128.239 21.0672 127.886 20.0465 127.805 18.9301C127.646 16.748 127.763 14.563 127.733 12.378C127.721 11.4412 127.727 10.5014 127.733 9.5645C127.733 9.36097 127.697 9.2472 127.458 9.23523C127.047 9.21128 126.643 9.13947 126.233 9.11253C126.015 9.09757 125.916 9.02272 125.931 8.79824C125.946 8.60069 125.931 8.40315 125.931 8.2056C125.931 7.69676 125.931 7.68478 126.452 7.6339C127.802 7.5022 129.152 7.40641 130.49 7.18193C130.843 7.12207 130.989 7.22383 131.091 7.59199C131.28 8.25647 131.34 8.91798 131.337 9.60042C131.325 12.3661 131.325 15.1288 131.313 17.8944C131.313 18.4362 131.417 18.948 131.63 19.4389C131.902 20.0735 132.411 20.3787 133.082 20.4296C133.378 20.4536 133.68 20.4446 133.977 20.4296C134.895 20.3758 135.485 19.7502 135.488 18.8433C135.488 15.8052 135.482 12.7702 135.494 9.7321C135.494 9.39986 135.428 9.22627 135.063 9.21729C134.692 9.20831 134.321 9.14844 133.947 9.13946C133.728 9.13348 133.671 9.05267 133.68 8.85213C133.692 8.55581 133.692 8.25946 133.674 7.96314C133.662 7.74164 133.746 7.65186 133.965 7.6339C135.413 7.51716 136.865 7.40941 138.305 7.18492C138.589 7.14003 138.739 7.18793 138.834 7.53813C139.038 8.27445 139.098 9.01075 139.092 9.76802C139.08 11.3364 139.089 12.9048 139.089 14.4702C139.083 14.4702 139.077 14.4702 139.074 14.4702L139.086 14.4732Z" fill="white"></path>
  <path d="M121.147 15.8381C120.114 15.8381 119.081 15.8441 118.049 15.8322C117.791 15.8322 117.704 15.904 117.707 16.1674C117.725 17.4514 118.01 18.6367 118.923 19.6035C119.485 20.1992 120.189 20.5075 121.015 20.5045C122.069 20.5045 123.098 20.3399 124.059 19.8879C124.331 19.7592 124.457 19.7981 124.55 20.0854C124.637 20.3518 124.774 20.6062 124.897 20.8607C124.987 21.0462 124.966 21.1929 124.78 21.3036C122.365 22.7194 119.869 23.2552 117.244 21.8963C115.989 21.2468 115.178 20.1632 114.654 18.8882C113.568 16.2362 113.541 13.5484 114.592 10.8845C115.385 8.87905 116.822 7.56806 119.01 7.155C121.533 6.67909 123.712 7.81948 124.759 10.1422C125.25 11.2287 125.463 12.3691 125.565 13.5424C125.618 14.156 125.735 14.7546 125.433 15.3533C125.301 15.6167 125.157 15.7034 124.873 15.7214C123.631 15.8052 122.386 15.7543 121.141 15.8292L121.147 15.8381ZM119.943 14.0782C119.943 14.0303 119.943 13.9854 119.943 13.9375C120.638 13.9375 121.335 13.9255 122.03 13.9435C122.308 13.9495 122.374 13.8357 122.347 13.5933C122.311 13.276 122.293 12.9557 122.263 12.6354C122.173 11.6657 121.931 10.7408 121.41 9.90869C121.033 9.30407 120.458 9.07361 119.755 9.13048C119.042 9.19034 118.555 9.51959 118.321 10.22C117.935 11.3843 117.666 12.5666 117.63 13.7998C117.624 14.0422 117.71 14.0901 117.929 14.0842C118.599 14.0722 119.27 14.0812 119.94 14.0812L119.943 14.0782Z" fill="white"></path>
  <path d="M97.2069 15.6974C95.1566 15.8531 93.1033 15.7513 91.05 15.7962C90.7537 15.8022 90.6789 15.889 90.6789 16.1763C90.6789 17.0952 90.8674 17.9692 91.2865 18.7804C91.8761 19.9237 92.828 20.4984 94.142 20.5224C95.1746 20.5403 96.1384 20.3039 97.0693 19.8998C97.3835 19.7621 97.4883 19.8609 97.5631 20.1452C97.62 20.3578 97.6769 20.5852 97.7996 20.7648C98.0001 21.0551 97.9253 21.2138 97.6469 21.3784C95.3512 22.7643 92.9477 23.1773 90.4364 22.0369C89.3888 21.561 88.5747 20.7409 88.0509 19.7142C86.3687 16.4217 86.2939 13.0964 88.1078 9.8398C89.6971 6.98733 93.3188 6.49347 95.5098 7.63984C96.6981 8.25943 97.3805 9.2771 97.8714 10.4474C98.4192 11.7524 98.5658 13.1383 98.6257 14.5361C98.6317 14.6708 98.6048 14.8084 98.5748 14.9372C98.4072 15.6076 98.2785 15.7034 97.5841 15.7004C97.4584 15.7004 97.3357 15.7004 97.2099 15.7004L97.2069 15.6974ZM92.9627 14.0811C92.9627 14.0302 92.9627 13.9823 92.9627 13.9315C93.669 13.9315 94.3784 13.9285 95.0848 13.9315C95.3063 13.9315 95.3931 13.8806 95.3512 13.6321C95.2464 13.0126 95.1955 12.384 95.0908 11.7674C94.9501 10.9593 94.7077 10.178 94.1031 9.5794C93.268 8.75329 91.8013 9.04364 91.3583 10.1152C90.8794 11.2765 90.7058 12.5097 90.5502 13.7429C90.5173 14.0033 90.613 14.0901 90.8794 14.0841C91.5738 14.0691 92.2682 14.0781 92.9657 14.0781L92.9627 14.0811Z" fill="white"></path>
  <path d="M56.4384 15.7963C55.6961 15.7963 54.6904 15.8022 53.6817 15.7903C53.4243 15.7903 53.3405 15.8651 53.3405 16.1255C53.3405 17.2389 53.5949 18.2776 54.2205 19.2085C54.7772 20.0376 55.5734 20.4686 56.5701 20.4955C57.7015 20.5284 58.8 20.3369 59.8237 19.837C59.9793 19.7622 60.0631 19.7861 60.123 19.9118C60.2816 20.259 60.4313 20.6122 60.5779 20.9654C60.6438 21.1241 60.551 21.2199 60.4223 21.2977C58.0786 22.6985 55.6332 23.2282 53.0531 21.9921C51.799 21.3904 50.928 20.3518 50.3922 19.0947C49.189 16.2692 49.1561 13.4047 50.3773 10.5792C51.8768 7.10711 55.4117 6.57733 57.6327 7.40344C59.0754 7.94221 59.9374 9.02875 60.5151 10.3817C61.0898 11.7346 61.2723 13.1563 61.2634 14.611C61.2634 14.7696 61.2304 14.9312 61.1915 15.0839C61.0538 15.6227 60.964 15.6675 60.4043 15.7154C59.1741 15.8232 57.944 15.7364 56.4474 15.7873L56.4384 15.7963ZM54.9568 14.0782C54.9568 14.0303 54.9568 13.9824 54.9568 13.9315C55.8637 13.9315 56.7706 13.9315 57.6806 13.9315C57.8721 13.9315 58.0158 13.9285 58.0068 13.6621C57.9769 12.5906 57.7524 11.5609 57.3962 10.5552C57.2765 10.214 57.064 9.92666 56.8425 9.64231C56.2319 8.85212 54.3103 8.95991 53.9631 10.1991C53.6308 11.3814 53.3644 12.5577 53.2866 13.7819C53.2716 14.0064 53.3465 14.0902 53.5799 14.0842C54.0379 14.0692 54.4988 14.0812 54.9598 14.0812L54.9568 14.0782Z" fill="white"></path>
  <path d="M44.2139 15.452C44.2139 17.0922 44.2169 18.7355 44.2079 20.3757C44.2079 20.6092 44.2887 20.705 44.5162 20.7409C44.8843 20.8008 45.2435 20.8906 45.6087 20.9624C45.7404 20.9893 45.8002 21.0522 45.7883 21.1929C45.7613 21.5491 45.7404 21.9052 45.7164 22.2644C45.7015 22.4769 45.6027 22.5488 45.3782 22.5488C43.3758 22.5338 41.3734 22.5218 39.3709 22.5338C39.0327 22.5338 38.9609 22.4231 39.0118 22.1327C39.0387 21.9741 39.0627 21.8154 39.0686 21.6538C39.1016 20.7768 39.0327 20.9385 39.8948 20.7499C40.4964 20.6182 40.4994 20.6301 40.4994 20.0255C40.4994 16.6941 40.4934 13.3598 40.5084 10.0284C40.5084 9.69016 40.4066 9.56744 40.0833 9.57642C39.799 9.58241 39.5116 9.5525 39.2273 9.56447C38.9968 9.57645 38.91 9.48063 38.913 9.26812C38.916 8.88499 38.922 8.50488 38.925 8.12175C38.925 7.94815 38.9938 7.86436 39.1854 7.84041C40.5054 7.68477 41.8253 7.51715 43.1453 7.35253C43.3548 7.32559 43.4656 7.40039 43.4955 7.62488C43.5344 7.91821 43.6152 8.20256 43.6721 8.4929C43.711 8.68147 43.7739 8.70244 43.9385 8.58271C45.1567 7.70572 46.5485 7.34953 48.0242 7.26871C48.6617 7.23579 49.0179 7.65484 48.976 8.28939C48.9041 9.37291 48.7784 10.4504 48.6138 11.522C48.5779 11.7674 48.5061 11.8602 48.2486 11.8512C47.653 11.8273 47.0544 11.8183 46.4587 11.8273C46.1924 11.8303 46.0876 11.7644 46.0786 11.4801C46.0606 10.9742 45.9828 10.4744 45.9529 9.96854C45.9349 9.66923 45.8092 9.5974 45.5249 9.6393C45.1088 9.70216 44.7437 9.87575 44.3845 10.0763C44.2139 10.1721 44.2079 10.3247 44.2079 10.4893C44.2079 12.1446 44.2079 13.7968 44.2079 15.452H44.2139Z" fill="white"></path>
  <path d="M146.209 8.68153C146.9 8.20562 147.646 7.87937 148.43 7.63393C149.172 7.40346 149.936 7.31664 150.705 7.2478C151.142 7.20889 151.621 7.72072 151.552 8.14874C151.378 9.27117 151.247 10.3966 151.166 11.528C151.148 11.7854 151.052 11.8842 150.768 11.8633C150.16 11.8154 149.549 11.8064 148.942 11.7944C148.723 11.7914 148.648 11.7136 148.637 11.4891C148.607 10.9474 148.535 10.4086 148.496 9.86681C148.481 9.64831 148.382 9.59744 148.182 9.61839C147.712 9.66628 147.299 9.86082 146.9 10.0913C146.751 10.1781 146.748 10.3278 146.748 10.4804C146.79 13.7519 146.79 17.0205 146.748 20.292C146.745 20.5614 146.814 20.6991 147.104 20.738C147.448 20.7829 147.783 20.8846 148.125 20.9475C148.304 20.9804 148.388 21.0492 148.361 21.2438C148.313 21.585 148.28 21.9292 148.238 22.2735C148.214 22.459 148.134 22.5428 147.921 22.5428C145.943 22.5309 143.964 22.5219 141.986 22.5369C141.665 22.5369 141.597 22.4411 141.63 22.1597C141.665 21.8544 141.686 21.5461 141.692 21.2378C141.698 21.0014 141.794 20.8726 142.031 20.8337C142.372 20.7769 142.785 20.8188 143.009 20.5524C143.24 20.28 143.057 19.8849 143.057 19.5437C143.066 16.371 143.06 13.1982 143.069 10.0255C143.069 9.75607 143.012 9.62439 142.713 9.59446C142.39 9.56453 142.067 9.54357 141.746 9.55555C141.531 9.56452 141.456 9.47771 141.459 9.28016C141.465 8.88507 141.471 8.48998 141.468 8.09489C141.468 7.90931 141.555 7.82848 141.731 7.81351C143.06 7.71773 144.371 7.48725 145.688 7.32263C145.862 7.30168 145.94 7.36156 145.973 7.52618C146.044 7.89733 146.128 8.26847 146.215 8.67554L146.209 8.68153Z" fill="white"></path>
  <path d="M81.506 15.4491C81.506 17.0773 81.512 18.7056 81.5001 20.3339C81.5001 20.5943 81.5809 20.711 81.8473 20.75C82.2034 20.8008 82.5506 20.8936 82.9038 20.9655C83.0565 20.9954 83.1044 21.0672 83.0864 21.2259C83.0445 21.582 83.0176 21.9382 82.9936 22.2944C82.9817 22.489 82.8859 22.5339 82.7033 22.5309C80.7009 22.5249 78.6985 22.5189 76.696 22.5279C76.4416 22.5279 76.3728 22.462 76.4087 22.2106C76.4566 21.8814 76.4716 21.5461 76.4835 21.2139C76.4925 20.9774 76.5973 20.8667 76.8367 20.8248C77.8424 20.6482 77.8394 20.6422 77.8394 19.6275C77.8394 16.4308 77.8334 13.2341 77.8484 10.0404C77.8484 9.70521 77.7496 9.57349 77.4264 9.57649C77.1271 9.57649 76.8307 9.55556 76.5314 9.56154C76.3428 9.56454 76.2531 9.49567 76.2471 9.31009C76.2471 9.28615 76.2381 9.26221 76.2381 9.23826C76.2231 8.83119 76.1094 8.37626 76.292 8.03205C76.4895 7.6579 76.9894 7.80455 77.3575 7.74768C78.3782 7.59503 79.4019 7.48129 80.4225 7.34061C80.644 7.31068 80.7548 7.38849 80.7997 7.58903C80.8625 7.87637 80.9284 8.16672 80.9703 8.45705C81.0032 8.68752 81.075 8.68752 81.2546 8.5678C82.5327 7.70577 83.9634 7.30768 85.4959 7.2538C85.9868 7.23584 86.4028 7.71475 86.343 8.19066C86.1963 9.31608 85.9988 10.4325 85.915 11.5669C85.9 11.7705 85.8162 11.8543 85.6156 11.8483C84.9691 11.8304 84.3226 11.8094 83.6761 11.8034C83.4666 11.8034 83.4366 11.6807 83.4157 11.522C83.3528 10.9713 83.269 10.4235 83.2241 9.86981C83.2061 9.64832 83.1373 9.60344 82.9308 9.62739C82.5267 9.66929 82.1615 9.81296 81.8083 9.99853C81.5719 10.1242 81.4851 10.2919 81.4881 10.5612C81.5001 12.1895 81.4941 13.8178 81.4941 15.4461C81.4971 15.4461 81.5001 15.4461 81.503 15.4461L81.506 15.4491Z" fill="white"></path>
  <path d="M31.2407 14.6379C31.2407 13.0934 31.2287 11.5519 31.2497 10.0075C31.2557 9.67822 31.1419 9.59142 30.8426 9.56149C30.4864 9.52856 30.1332 9.44773 29.7771 9.39086C29.5675 9.35793 29.4957 9.26517 29.5226 9.04068C29.5705 8.64858 29.5885 8.25346 29.5915 7.85837C29.5915 7.583 29.6693 7.46625 29.9776 7.47523C30.4356 7.48721 30.8965 7.43335 31.3574 7.42437C31.5879 7.41839 31.6568 7.31659 31.7106 7.09809C31.9142 6.29892 32.1566 5.50874 32.3811 4.71555C32.429 4.54794 32.5308 4.47013 32.7014 4.46714C33.3599 4.45816 34.0214 4.45217 34.6798 4.43122C34.8983 4.42523 34.9193 4.54494 34.9193 4.70956C34.9193 5.53567 34.9432 6.36479 34.9253 7.1909C34.9193 7.44232 34.9792 7.50519 35.2306 7.4992C35.94 7.48124 36.6493 7.49619 37.3587 7.48422C37.5892 7.48123 37.658 7.54109 37.6191 7.78354C37.5593 8.16067 37.5174 8.54382 37.5233 8.92395C37.5293 9.27115 37.3587 9.37591 37.0564 9.40584C36.4757 9.45972 35.8951 9.53753 35.3144 9.58842C35.048 9.61236 34.9373 9.69018 34.9373 9.99249C34.9492 13.0545 34.9432 16.1165 34.9432 19.1785C34.9432 19.4479 34.9193 19.7202 35.0719 19.9716C35.3174 20.3727 35.6556 20.6002 36.1375 20.5942C36.5476 20.5913 36.9606 20.6122 37.3677 20.5883C37.6281 20.5733 37.7209 20.6721 37.7418 20.9175C37.8676 22.5218 38.101 22.2046 36.6044 22.5278C35.3563 22.8002 34.0633 22.881 32.851 22.2465C31.9022 21.7496 31.4891 20.9265 31.3125 19.9327C31.1809 19.1964 31.2497 18.4541 31.2407 17.7148C31.2287 16.6912 31.2407 15.6645 31.2407 14.6409V14.6379Z" fill="white"></path>
</svg>
