<?xml version="1.0" encoding="UTF-8"?>
<svg xmlns="http://www.w3.org/2000/svg" width="50" height="30" viewBox="0 0 50 30" fill="none">
  <path d="M26.9226 29.9C26.9885 29.878 27.0544 29.8578 27.122 29.8358C27.0967 29.7648 27.0324 29.7834 26.9851 29.78C26.0555 29.7208 25.3829 29.2307 24.8792 28.4904C24.5446 27.9969 24.3688 27.4392 24.3468 26.8358C24.3248 26.2088 24.3688 25.5969 24.5953 25.0003C25.0263 23.8612 25.8815 23.2764 27.051 23.0989C27.553 23.0228 28.06 23.0262 28.5536 23.1631C29.6538 23.4674 30.269 24.2127 30.4955 25.3079C30.5969 25.7997 30.5564 26.2966 30.5564 26.7935C30.5564 26.949 30.4516 26.9254 30.3519 26.9237C29.3209 26.9135 28.2899 26.9051 27.2589 26.8949C27.1389 26.8949 27.0206 26.8966 26.9006 26.9017C26.4561 26.9169 26.5068 26.8764 26.5964 27.2989C26.7637 28.0882 27.384 28.3197 28.1327 28.0916C28.3676 28.0206 28.4995 27.811 28.5806 27.5913C28.6381 27.4375 28.7107 27.4172 28.8612 27.4662C29.3598 27.6285 29.8634 27.7772 30.3671 27.9259C30.4972 27.9648 30.5057 28.0341 30.4702 28.1473C30.1981 29.0161 29.3766 29.6938 28.4724 29.7885C28.4302 29.7935 28.3862 29.7884 28.3474 29.802C28.1986 29.8442 28.3795 29.8645 28.3558 29.9C27.8792 29.9 27.4009 29.9 26.9243 29.9H26.9226ZM27.5124 25.7828C27.5124 25.7828 27.5124 25.7795 27.5124 25.7778C27.771 25.7778 28.0296 25.7795 28.2882 25.7778C28.3626 25.7778 28.442 25.7778 28.4521 25.6645C28.4893 25.2369 28.1581 24.789 27.7372 24.7079C27.215 24.6082 26.6167 25.0865 26.5896 25.624C26.5829 25.749 26.6522 25.7812 26.7569 25.7812C27.0088 25.7812 27.2606 25.7812 27.5124 25.7812V25.7828Z" fill="white"></path>
  <path d="M10.2456 29.9C10.3098 29.878 10.3741 29.8544 10.4569 29.8273C10.3217 29.7563 10.1848 29.7834 10.0563 29.758C8.98478 29.5451 8.2783 28.8876 7.89802 27.8989C7.50591 26.8831 7.56 25.8521 7.97577 24.8499C8.41521 23.7936 9.25689 23.2595 10.3622 23.0972C10.8659 23.0229 11.3712 23.033 11.8664 23.1648C12.9633 23.4589 13.6698 24.2769 13.827 25.411C13.8895 25.8589 13.8524 26.3051 13.8693 26.753C13.876 26.9288 13.7594 26.9203 13.6445 26.9203C12.9143 26.9136 12.1842 26.9017 11.4557 26.8983C10.9859 26.895 10.516 26.9051 10.0462 26.8983C9.87717 26.8983 9.82477 26.9592 9.84844 27.1248C9.97182 27.9952 10.5617 28.3164 11.3797 28.122C11.6214 28.0645 11.7786 27.8549 11.8563 27.6234C11.9222 27.4273 12.0152 27.4155 12.191 27.4747C12.6693 27.6335 13.1526 27.7772 13.636 27.9209C13.8016 27.9699 13.8371 28.0392 13.7662 28.2099C13.4366 29.0042 12.8856 29.5434 12.0355 29.7546C11.8783 29.7935 11.7177 29.7986 11.5453 29.7935C11.596 29.8341 11.6366 29.8662 11.6788 29.9C11.2022 29.9 10.7239 29.9 10.2473 29.9H10.2456ZM10.8067 25.7812C10.8067 25.7812 10.8067 25.7845 10.8067 25.7862C10.9893 25.7862 11.1718 25.7862 11.3527 25.7862C11.787 25.7862 11.7921 25.7812 11.6772 25.3553C11.5318 24.8195 11.1667 24.6031 10.6327 24.7333C10.2642 24.8229 9.89238 25.2707 9.86703 25.6493C9.85858 25.7795 9.94139 25.7812 10.0293 25.7812C10.2879 25.7812 10.5481 25.7812 10.8067 25.7812Z" fill="white"></path>
  <path d="M0.56185 15.49C0.56185 14.1886 0.565232 12.8855 0.558472 11.5841C0.558472 11.4015 0.592274 11.3289 0.79847 11.3306C2.01874 11.3407 3.24071 11.3255 4.46098 11.339C5.18436 11.3474 5.8621 11.5131 6.42153 12.0184C7.24632 12.7638 7.28519 14.6128 5.9483 15.2009C5.91618 15.2145 5.88576 15.2314 5.85365 15.2483C5.77928 15.2871 5.67957 15.3209 5.6914 15.419C5.70323 15.517 5.81647 15.4916 5.88238 15.5102C6.91843 15.7824 7.51167 16.7728 7.33082 17.8376C7.1635 18.8246 6.36238 19.3316 5.53422 19.5192C5.12351 19.6122 4.70436 19.6511 4.28183 19.6494C3.11733 19.6494 1.95283 19.6443 0.788329 19.6544C0.595655 19.6544 0.558472 19.5953 0.558472 19.4178C0.565232 18.1097 0.56185 16.7998 0.56185 15.4917V15.49ZM3.62775 17.7243C3.62775 17.7243 3.62775 17.7192 3.62775 17.7158C3.85253 17.7158 4.07563 17.7243 4.30042 17.7142C4.54211 17.7023 4.74999 17.6144 4.8869 17.3998C5.20971 16.8928 4.87675 16.2877 4.24126 16.259C3.82211 16.2404 3.40127 16.2657 2.98212 16.2674C2.85705 16.2674 2.83508 16.3266 2.83508 16.4364C2.83677 16.8133 2.83508 17.1902 2.82493 17.5671C2.82155 17.6854 2.85705 17.7311 2.97874 17.726C3.19507 17.7175 3.4131 17.7243 3.62944 17.7243H3.62775ZM3.49592 14.775C3.67845 14.775 3.8593 14.7801 4.04183 14.775C4.26155 14.7666 4.45084 14.6888 4.58605 14.5063C4.79056 14.2291 4.78042 13.9164 4.66718 13.6274C4.55901 13.3553 4.29535 13.237 4.00465 13.2252C3.67 13.2134 3.33366 13.2235 2.99733 13.215C2.86043 13.2116 2.83508 13.2759 2.83677 13.3942C2.84015 13.7914 2.84522 14.1902 2.83001 14.5874C2.82494 14.7547 2.88578 14.7902 3.03451 14.7801C3.18831 14.7683 3.34211 14.7784 3.49592 14.7767V14.775Z" fill="white"></path>
  <path d="M5.60652 26.2053C5.70793 26.2341 5.76708 26.2543 5.82624 26.2679C6.313 26.3794 6.63581 26.6803 6.78961 27.1451C6.95863 27.6555 7.10736 28.1727 7.25102 28.6915C7.35243 29.0566 7.44369 29.42 7.74285 29.6921C7.66679 29.7512 7.59412 29.7293 7.52989 29.731C6.8775 29.7327 6.22342 29.7191 5.57272 29.7377C5.26343 29.7462 5.08934 29.616 4.97779 29.3456C4.78343 28.8707 4.70906 28.362 4.56709 27.8718C4.56202 27.8515 4.56033 27.8296 4.55526 27.8093C4.40822 27.189 4.2392 27.0521 3.59865 27.0436C3.40935 27.0403 3.22006 27.0504 3.03076 27.0386C2.88034 27.0301 2.8364 27.0876 2.83809 27.2329C2.84485 27.9884 2.83809 28.7456 2.84992 29.5011C2.8533 29.6701 2.8195 29.7377 2.63696 29.7343C2.00485 29.7259 1.37444 29.7259 0.742326 29.7343C0.586834 29.736 0.559792 29.6819 0.559792 29.5417C0.563172 26.9017 0.563172 24.2617 0.559792 21.6234C0.559792 21.5051 0.568244 21.4206 0.722046 21.424C2.05556 21.4426 3.38907 21.3665 4.72089 21.4628C5.37835 21.5102 6.00708 21.6893 6.53271 22.1186C7.02454 22.5209 7.24764 23.06 7.29158 23.6769C7.31524 24.0031 7.322 24.3344 7.2375 24.6589C7.06679 25.3231 6.63074 25.7456 6.00708 25.9941C5.87694 26.0465 5.74849 26.0972 5.60483 26.2087L5.60652 26.2053ZM2.83809 24.2955C2.83809 24.2955 2.83978 24.2955 2.84147 24.2955C2.84147 24.5473 2.84147 24.7991 2.84147 25.0493C2.84147 25.122 2.8364 25.1946 2.94288 25.1913C3.36879 25.1777 3.79808 25.2352 4.22061 25.1575C4.74963 25.0594 4.96765 24.7535 4.9423 24.1789C4.92202 23.7242 4.62455 23.4386 4.12935 23.3811C3.76597 23.3389 3.40259 23.3592 3.03921 23.3507C2.87527 23.3473 2.83302 23.4133 2.83809 23.562C2.84654 23.8071 2.83978 24.0504 2.83978 24.2955H2.83809Z" fill="white"></path>
  <path d="M8.0636 5.39817C8.0636 6.70633 8.06022 8.01618 8.06698 9.32434C8.06698 9.50856 8.02473 9.57618 7.82191 9.57111C7.21178 9.5559 6.60164 9.55759 5.9915 9.57111C5.80897 9.57449 5.77348 9.51533 5.77517 9.348C5.78362 8.4235 5.77517 7.50071 5.78362 6.57621C5.78531 6.41057 5.73629 6.34802 5.57911 6.34972C4.71714 6.34972 3.85349 6.33283 2.99152 6.36494C2.86307 6.37001 2.84617 6.43253 2.84786 6.53901C2.85462 7.48379 2.85631 8.42858 2.85969 9.37336C2.85969 9.45956 2.89011 9.56942 2.74138 9.56773C2.08899 9.5559 1.4366 9.59139 0.7859 9.54914C0.601676 9.53731 0.561113 9.45786 0.561113 9.28378C0.566183 6.67929 0.566183 4.07649 0.561113 1.472C0.561113 1.29454 0.613507 1.24723 0.7859 1.25061C1.38928 1.26075 1.99265 1.25397 2.59603 1.25566C2.87152 1.25566 2.86476 1.26073 2.86138 1.53284C2.85293 2.40833 2.85124 3.28213 2.84279 4.15762C2.84279 4.29114 2.8749 4.36045 3.03208 4.35876C3.89574 4.35369 4.75771 4.35536 5.62136 4.36212C5.7515 4.36212 5.78869 4.31818 5.787 4.19142C5.76672 3.2686 5.81911 2.34412 5.75488 1.42131C5.74643 1.303 5.787 1.25735 5.907 1.25735C6.57967 1.25735 7.25403 1.25736 7.9267 1.24891C8.06529 1.24891 8.08727 1.31651 8.08727 1.43144C8.08557 2.75481 8.08727 4.07649 8.08727 5.39986C8.0805 5.39986 8.07543 5.39986 8.06867 5.39986L8.0636 5.39817Z" fill="white"></path>
  <path d="M35.5673 25.7828C35.5268 26.0786 35.4997 26.376 35.4457 26.6684C35.2851 27.5203 35.0975 28.367 34.9521 29.2205C34.8473 29.8425 34.795 29.7259 34.3268 29.7309C33.7437 29.736 33.1623 29.7242 32.5792 29.736C32.3798 29.7394 32.2986 29.665 32.2479 29.4774C31.7696 27.7028 31.2846 25.9315 30.7995 24.1586C30.7251 23.8898 30.6491 23.6211 30.5662 23.3541C30.5341 23.2493 30.5578 23.2172 30.666 23.2172C31.3251 23.2206 31.986 23.2223 32.6451 23.2206C32.8327 23.2206 32.875 23.3406 32.9071 23.4859C33.1133 24.4358 33.3161 25.3856 33.5341 26.3321C33.6237 26.7191 33.6541 27.118 33.7521 27.5541C33.9026 27.1636 33.9651 26.8053 34.0344 26.4453C34.2288 25.4228 34.435 24.402 34.6344 23.3794C34.6564 23.2679 34.7155 23.2155 34.8389 23.2172C35.3933 23.2239 35.9476 23.2223 36.502 23.2223C36.6355 23.2223 36.7251 23.2611 36.7538 23.4115C36.9769 24.5575 37.2085 25.7 37.4299 26.8459C37.4704 27.0555 37.4654 27.2735 37.5837 27.4763C37.6293 27.2481 37.6766 27.0217 37.7206 26.7935C37.9116 25.7828 38.1701 24.789 38.3949 23.7868C38.4186 23.6837 38.4608 23.5789 38.4524 23.4791C38.4338 23.2746 38.5386 23.2239 38.711 23.2239C39.3076 23.2256 39.9042 23.2273 40.5008 23.2273C40.6631 23.2273 40.7138 23.2577 40.658 23.447C40.369 24.4476 40.0986 25.4532 39.8265 26.4588C39.5848 27.3495 39.3482 28.2402 39.1099 29.1309C39.093 29.1918 39.071 29.2509 39.0592 29.3135C38.9696 29.7563 39.0423 29.7326 38.5352 29.7326C37.8828 29.7326 37.2304 29.7309 36.578 29.7326C36.4597 29.7326 36.3803 29.7157 36.3549 29.5771C36.1961 28.7388 36.022 27.9056 35.8716 27.0656C35.7938 26.6346 35.7211 26.2036 35.6265 25.7743C35.6062 25.776 35.5859 25.7794 35.5673 25.7811V25.7828Z" fill="white"></path>
  <path d="M43.5703 8.4252C43.1174 9.66745 41.8734 9.82294 40.9625 9.62857C40.0971 9.44266 39.5394 8.87309 39.2504 8.07535C38.7805 6.77564 38.8194 5.47424 39.4616 4.232C40.1191 2.96102 41.647 2.64833 42.7658 3.09452C43.0887 3.22297 43.3405 3.43593 43.4926 3.77565C43.5771 3.69452 43.5568 3.60834 43.5501 3.53397C43.4706 2.67539 43.5518 1.81342 43.5163 0.953141C43.5112 0.846663 43.5467 0.822998 43.6447 0.822998C44.3174 0.826378 44.9917 0.828068 45.6644 0.822998C45.83 0.822998 45.8385 0.912578 45.8385 1.03765C45.8334 2.35257 45.83 3.66918 45.83 4.9841C45.83 6.4393 45.83 7.89619 45.8385 9.35139C45.8385 9.51533 45.7996 9.56942 45.6289 9.56604C45.0898 9.55421 44.5489 9.54913 44.0081 9.55927C43.8458 9.56265 43.7765 9.50181 43.7529 9.35646C43.7157 9.13675 43.6802 8.91533 43.6396 8.69731C43.6261 8.62294 43.6025 8.55196 43.5703 8.42351V8.4252ZM43.5551 6.21283C43.5551 5.98804 43.567 5.76495 43.5534 5.54185C43.523 5.06354 43.2256 4.66129 42.8503 4.56833C42.3078 4.43312 41.8211 4.60719 41.5388 5.03648C41.3732 5.28831 41.2954 5.57226 41.2599 5.86465C41.194 6.4207 41.1906 6.97168 41.5067 7.46858C41.7534 7.85731 42.2149 8.07534 42.6171 7.9959C43.1089 7.89787 43.403 7.59534 43.5179 7.11197C43.5889 6.8145 43.5602 6.51367 43.5568 6.21283H43.5551Z" fill="white"></path>
  <path d="M11.8734 18.5304C11.8024 18.5744 11.7889 18.6319 11.772 18.6826C11.5438 19.3231 11.0655 19.651 10.4148 19.7575C9.9365 19.8352 9.45819 19.8268 9.01199 19.624C8.32411 19.3113 8.03003 18.7197 7.932 18.0099C7.87454 17.5924 7.8982 17.1716 7.8982 16.7524C7.8982 15.6336 7.8982 14.513 7.8982 13.3941C7.8982 13.1051 7.90158 13.0967 8.1889 13.1068C8.79904 13.1271 9.40918 13.0781 10.0193 13.117C10.1714 13.1271 10.1849 13.1829 10.1833 13.3079C10.1765 14.6093 10.1748 15.9107 10.1714 17.2121C10.1714 17.2814 10.1782 17.3524 10.1866 17.4217C10.234 17.7952 10.403 18.0082 10.7038 18.0826C11.0351 18.1637 11.3765 18.0386 11.5725 17.7547C11.7787 17.4555 11.8463 17.1124 11.848 16.7592C11.8531 15.6116 11.8531 14.464 11.8463 13.3164C11.8463 13.1474 11.8801 13.0899 12.061 13.095C12.7066 13.1102 13.3506 13.1102 13.9962 13.1085C14.1196 13.1085 14.1568 13.1541 14.1551 13.2674C14.1517 13.5057 14.1551 13.744 14.1551 13.9806C14.1551 15.6538 14.1551 17.3254 14.1551 18.9986C14.1551 19.2082 14.2024 19.4719 14.0976 19.6088C13.9928 19.744 13.7173 19.6459 13.5162 19.6493C13.1021 19.6578 12.688 19.6493 12.2739 19.6544C12.1539 19.6561 12.1016 19.624 12.0863 19.4972C12.061 19.2826 12.0154 19.0696 11.9748 18.8566C11.9545 18.7485 11.9528 18.6335 11.8785 18.5338L11.8734 18.5304Z" fill="white"></path>
  <path d="M26.7013 14.3034C26.7976 14.1446 26.8821 13.9924 26.9802 13.8488C27.6833 12.8195 29.294 12.6437 30.134 13.4989C30.5413 13.913 30.7018 14.4319 30.7069 14.9896C30.7204 16.4871 30.7103 17.9845 30.7137 19.4837C30.7137 19.6104 30.6832 19.651 30.5514 19.6493C29.9058 19.6425 29.2602 19.6442 28.6145 19.6493C28.4827 19.6493 28.4388 19.6206 28.4388 19.4752C28.4472 18.3547 28.4438 17.2358 28.4421 16.1152C28.4421 15.9259 28.4489 15.7383 28.4117 15.5507C28.3188 15.0741 28.0737 14.8358 27.6528 14.8274C27.2134 14.8172 26.8517 15.0961 26.7554 15.5305C26.6962 15.7975 26.6743 16.0713 26.6759 16.3434C26.6844 17.393 26.6489 18.4425 26.6979 19.4921C26.703 19.6121 26.659 19.6493 26.5407 19.6476C25.8816 19.6442 25.2224 19.6442 24.5616 19.6476C24.4416 19.6476 24.4078 19.6054 24.4078 19.4887C24.4162 17.5569 24.4196 15.6251 24.423 13.6933C24.423 13.6578 24.423 13.624 24.423 13.5885C24.3977 13.0392 24.374 13.1085 24.9131 13.1017C25.3627 13.0967 25.8106 13.1017 26.2602 13.0984C26.4089 13.0984 26.4934 13.1355 26.5086 13.3029C26.534 13.5817 26.5813 13.8572 26.6202 14.1344C26.6286 14.1885 26.6219 14.2493 26.6996 14.3017L26.7013 14.3034Z" fill="white"></path>
  <path d="M32.9935 6.1841C32.9935 6.59649 33.0019 7.01056 32.9918 7.42295C32.9816 7.85732 33.1168 7.92154 33.558 7.86746C33.7151 7.84887 33.7506 7.86239 33.7473 8.01788C33.7371 8.38802 33.7354 8.75986 33.7473 9.13169C33.754 9.32268 33.6763 9.42069 33.5089 9.49844C32.6199 9.91083 31.5856 9.61676 31.065 8.79536C31.0059 8.7024 30.9687 8.63309 30.8842 8.78182C30.6695 9.16379 30.345 9.43252 29.9309 9.56266C29.3766 9.73675 28.807 9.74689 28.256 9.54069C27.4718 9.24661 27.0493 8.44381 27.1845 7.5886C27.3197 6.74185 27.8098 6.22972 28.6211 5.98803C29.2414 5.80381 29.8785 5.78861 30.5174 5.78861C30.803 5.78861 30.8047 5.78354 30.7878 5.49115C30.7811 5.35087 30.7726 5.21059 30.7507 5.07369C30.7118 4.82017 30.5309 4.63933 30.3011 4.61059C30.0188 4.5751 29.8076 4.69847 29.7011 4.96213C29.6909 4.98749 29.6808 5.01452 29.6707 5.03987C29.554 5.38804 29.554 5.38467 29.1771 5.32044C28.6735 5.23424 28.1681 5.14804 27.6611 5.08044C27.4836 5.05677 27.4566 4.99932 27.4938 4.83707C27.6662 4.0951 28.065 3.52721 28.7732 3.22129C29.816 2.76834 30.8774 2.77679 31.9152 3.22468C32.6132 3.52552 32.9292 4.12552 32.9782 4.86073C33.007 5.30016 32.9833 5.74297 32.9833 6.1841C32.985 6.1841 32.9884 6.1841 32.9901 6.1841H32.9935ZM30.7861 7.22353C30.7422 7.16268 30.8842 6.98353 30.6814 6.97001C30.34 6.94804 29.9969 6.94634 29.6757 7.11367C29.4121 7.25057 29.3766 7.47536 29.4002 7.73564C29.4222 7.97733 29.5828 8.08888 29.7856 8.1531C29.9783 8.21395 30.1709 8.20212 30.3585 8.11592C30.7354 7.94522 30.7828 7.61057 30.7861 7.22353Z" fill="white"></path>
  <path d="M12.4921 8.6635C12.4634 8.69561 12.4347 8.71758 12.4195 8.74632C11.9817 9.4849 11.2955 9.71984 10.486 9.68096C9.73554 9.64547 9.11357 9.37165 8.80935 8.63138C8.34963 7.51251 8.92766 6.34295 10.0905 5.99816C10.731 5.80887 11.3868 5.78183 12.0476 5.79197C12.3164 5.79535 12.3164 5.79196 12.2995 5.52661C12.291 5.38633 12.2809 5.24774 12.2674 5.10746C12.2369 4.81 12.0476 4.61564 11.7755 4.60381C11.4696 4.59028 11.2398 4.76099 11.1772 5.04831C11.1671 5.09563 11.1468 5.14295 11.1451 5.19028C11.1417 5.37112 11.0352 5.38802 10.8899 5.36267C10.3169 5.26464 9.74568 5.15816 9.16935 5.0838C8.95808 5.05675 8.95808 4.97563 9.00033 4.81338C9.27921 3.72156 10.0161 3.13338 11.0978 2.96944C11.8431 2.8562 12.5952 2.86128 13.3119 3.1655C14.0031 3.45959 14.4121 3.97846 14.4662 4.73056C14.5287 5.58915 14.478 6.45112 14.4899 7.31309C14.4899 7.34182 14.4899 7.36886 14.4899 7.3976C14.4899 7.82182 14.6538 7.96885 15.0628 7.87589C15.2437 7.83364 15.2589 7.86913 15.2403 8.03645C15.1964 8.41166 15.2217 8.79195 15.2352 9.16885C15.2403 9.32603 15.1862 9.41053 15.051 9.48152C14.3462 9.84997 13.2696 9.68602 12.7913 9.13503C12.6713 8.99644 12.6121 8.82238 12.4955 8.66858L12.4921 8.6635ZM11.9141 6.96153C11.6521 6.96153 11.3952 6.97674 11.1603 7.11026C10.9068 7.25223 10.8189 7.46181 10.8814 7.76942C10.922 7.97054 11.1299 8.14801 11.3648 8.17674C11.8651 8.23759 12.2809 7.979 12.2826 7.35703C12.2826 6.96154 12.2978 6.96153 11.9141 6.96322V6.96153Z" fill="white"></path>
  <path d="M35.5451 16.8201C34.9417 16.8201 34.3384 16.815 33.735 16.8235C33.4646 16.8268 33.4679 16.8471 33.5271 17.1074C33.6353 17.5705 33.8584 17.9271 34.3569 18.0302C34.8826 18.1401 35.42 18.0065 35.5536 17.4454C35.5806 17.3288 35.66 17.3271 35.7479 17.3508C35.971 17.4116 36.1907 17.4792 36.4121 17.5434C36.7147 17.633 37.0155 17.726 37.3197 17.8088C37.4668 17.8494 37.5073 17.917 37.4549 18.0674C37.2065 18.7857 36.7333 19.3113 36.0217 19.5615C34.913 19.9536 33.8093 19.9079 32.7801 19.3012C31.9063 18.784 31.4668 17.966 31.3468 16.9756C31.2741 16.3739 31.3079 15.7722 31.4837 15.1874C31.9181 13.7457 33.1215 12.9142 34.6882 12.9615C35.2189 12.9784 35.7395 13.0579 36.2026 13.335C37.0121 13.8218 37.4076 14.5739 37.5293 15.4883C37.58 15.8652 37.5749 16.242 37.5614 16.6189C37.5547 16.7761 37.5006 16.8387 37.3333 16.8353C36.7366 16.8268 36.1417 16.8319 35.5451 16.8319C35.5451 16.8268 35.5451 16.8218 35.5451 16.8167V16.8201ZM34.4888 15.6978C34.4888 15.6978 34.4888 15.7012 34.4888 15.7029C34.6781 15.7029 34.8674 15.7029 35.0567 15.7029C35.3034 15.7029 35.4071 15.5801 35.3676 15.3344C35.2967 14.9001 35.0769 14.6499 34.7254 14.6128C34.0341 14.5401 33.664 14.9795 33.5761 15.566C33.5592 15.6809 33.6234 15.6961 33.7113 15.6961C33.9716 15.6961 34.2302 15.6961 34.4905 15.6961L34.4888 15.6978Z" fill="white"></path>
  <path d="M40.4906 19.7913C40.0173 19.7727 39.5576 19.7136 39.1148 19.5277C38.5249 19.2792 38.1413 18.8364 37.8776 18.2736C37.8354 18.1823 37.8421 18.1198 37.952 18.0792C38.4945 17.873 39.0354 17.6617 39.5762 17.4488C39.6523 17.4184 39.6709 17.4437 39.6844 17.5147C39.8061 18.1586 40.783 18.3834 41.2545 18.0538C41.4556 17.9136 41.4742 17.7141 41.3001 17.5401C41.1937 17.4336 41.0635 17.3677 40.9165 17.3339C40.4466 17.224 39.9751 17.1192 39.5069 16.9992C39.2145 16.9248 38.939 16.8032 38.6889 16.6257C37.592 15.8432 37.8033 14.0364 38.9931 13.4111C40.0731 12.8449 41.1954 12.8094 42.321 13.2691C42.8618 13.4905 43.2353 13.9046 43.4517 14.4522C43.4652 14.4843 43.477 14.5181 43.4872 14.5502C43.5649 14.7936 43.5429 14.8156 43.2911 14.8511C42.7368 14.9288 42.1824 15.0133 41.6297 15.0995C41.5283 15.1147 41.4675 15.1029 41.4506 14.9913C41.3863 14.5654 40.6849 14.3896 40.3165 14.655C40.1678 14.7615 40.1559 14.9068 40.1813 15.0674C40.2049 15.2178 40.2844 15.3192 40.4399 15.3632C40.9131 15.495 41.4015 15.5508 41.8815 15.6539C42.2077 15.7249 42.5153 15.8381 42.7908 16.0223C43.4551 16.4668 43.7255 17.0989 43.6376 17.8831C43.5463 18.6995 43.0883 19.2302 42.3294 19.5293C41.7345 19.7643 41.1159 19.7862 40.4906 19.7896V19.7913Z" fill="white"></path>
  <path d="M17.5881 19.7964C16.9695 19.7711 16.405 19.7474 15.876 19.4905C15.3217 19.2218 14.965 18.784 14.7098 18.2449C14.6659 18.1536 14.6828 18.113 14.7808 18.0758C15.2777 17.8882 15.7729 17.6905 16.2681 17.4995C16.3594 17.464 16.4811 17.3913 16.5284 17.5519C16.6738 18.0404 17.0608 18.1604 17.5002 18.206C17.6473 18.2212 17.7926 18.1975 17.9346 18.1451C18.0952 18.086 18.2304 17.9964 18.2388 17.8105C18.2473 17.6229 18.1374 17.4961 17.9735 17.4167C17.6794 17.2747 17.3583 17.2308 17.0422 17.1699C16.7194 17.1057 16.3983 17.0364 16.089 16.9198C15.391 16.6561 14.938 16.1863 14.8552 15.4207C14.769 14.6178 15.0124 13.9131 15.707 13.4939C16.9273 12.757 18.2101 12.7536 19.4675 13.4246C19.9492 13.6815 20.1875 14.1531 20.3515 14.6584C20.3904 14.7784 20.3397 14.8173 20.223 14.8325C19.7718 14.8933 19.3222 14.9626 18.8709 15.0302C18.7678 15.0454 18.6563 15.0471 18.5616 15.0894C18.4095 15.1553 18.3368 15.1114 18.2692 14.9694C18.0935 14.6043 17.7757 14.4624 17.3836 14.5553C17.1707 14.606 16.9864 14.7953 16.9831 14.9626C16.9797 15.1435 17.1554 15.3463 17.3752 15.3919C17.8281 15.4849 18.2845 15.5576 18.7357 15.6607C19.334 15.7959 19.863 16.0578 20.1909 16.6071C20.6861 17.437 20.6675 18.9344 19.1853 19.5243C18.7087 19.7136 18.1611 19.8065 17.5881 19.7981V19.7964Z" fill="white"></path>
  <path d="M46.7529 19.793C46.2645 19.7778 45.7574 19.7508 45.269 19.5598C44.6436 19.3164 44.2279 18.8719 43.9507 18.2753C43.9 18.1654 43.9338 18.1063 44.0386 18.0657C44.5676 17.8612 45.0966 17.6584 45.6239 17.4505C45.7 17.4201 45.7287 17.4252 45.7507 17.5147C45.9264 18.2043 46.8492 18.3412 47.2921 18.0792C47.5523 17.9254 47.5642 17.7006 47.3309 17.5046C47.145 17.3491 46.9169 17.3085 46.6921 17.2544C46.2154 17.1412 45.7253 17.0854 45.269 16.8961C44.5726 16.6105 44.1079 16.1322 44.0605 15.3547C44.0081 14.5029 44.3208 13.8117 45.0949 13.3959C46.038 12.8888 47.0419 12.8483 48.0526 13.1339C48.6999 13.3164 49.1935 13.7187 49.4791 14.3457C49.4943 14.3779 49.5078 14.41 49.5196 14.4421C49.6464 14.7733 49.6092 14.8173 49.2644 14.8612C48.7506 14.9271 48.2385 15.0066 47.7264 15.0928C47.6014 15.113 47.5371 15.1164 47.505 14.9677C47.4526 14.7159 47.2549 14.6094 47.0216 14.5604C46.7715 14.508 46.5264 14.5131 46.3338 14.7057C46.136 14.9052 46.2307 15.2702 46.4994 15.3547C46.976 15.5052 47.4746 15.5423 47.9597 15.6522C48.2977 15.7283 48.6171 15.8533 48.9011 16.0511C49.3118 16.335 49.5805 16.7085 49.6312 17.2207C49.6616 17.5215 49.6887 17.819 49.6397 18.1198C49.5163 18.8888 48.9991 19.2961 48.3213 19.5598C47.8228 19.7542 47.2954 19.7727 46.7461 19.7913L46.7529 19.793Z" fill="white"></path>
  <path d="M17.2306 29.731C16.9077 29.731 16.5849 29.7242 16.2621 29.7343C16.0999 29.7394 16.0137 29.6955 15.9562 29.5281C15.4525 28.0763 14.9387 26.6279 14.4283 25.1794C14.2221 24.593 14.0193 24.0048 13.8064 23.4217C13.7455 23.2561 13.754 23.2071 13.9551 23.2121C14.5855 23.2273 15.2176 23.2256 15.848 23.2138C16.039 23.2104 16.132 23.2848 16.1759 23.4572C16.4768 24.6487 16.8723 25.8132 17.1613 27.0082C17.1883 27.1231 17.1799 27.3208 17.3015 27.3242C17.4435 27.3276 17.4215 27.1282 17.4486 27.0166C17.7494 25.7794 18.2108 24.593 18.5522 23.3676C18.5793 23.2696 18.6368 23.2138 18.7466 23.2155C19.399 23.2206 20.0514 23.2223 20.7038 23.2223C20.8052 23.2223 20.8204 23.2442 20.7832 23.344C20.048 25.3569 19.3162 27.3715 18.5844 29.3879C18.461 29.7276 18.466 29.731 18.1145 29.731C17.8204 29.731 17.5246 29.731 17.2306 29.731Z" fill="white"></path>
  <path d="M23.956 7.21165C24.0676 7.07306 24.0828 6.90236 24.1234 6.74686C24.3989 5.65504 24.7808 4.59703 25.1189 3.52549C25.2963 2.96267 25.1898 3.06577 25.7527 3.0607C26.2512 3.05563 26.7481 3.07253 27.2467 3.0607C27.4326 3.05563 27.4631 3.09281 27.3988 3.26689C27.0236 4.28942 26.6569 5.31534 26.2884 6.34125C25.9318 7.33336 25.5887 8.33052 25.2 9.31249C25.1239 9.50517 25.0259 9.57785 24.8163 9.57278C24.2282 9.55757 23.6383 9.5677 23.0484 9.5677C22.6648 9.5677 22.6732 9.56263 22.5515 9.2077C22.2693 8.38123 21.9786 7.55814 21.6879 6.73504C21.2823 5.58237 20.8732 4.4314 20.4642 3.27873C20.3916 3.07254 20.4068 3.05901 20.6332 3.0607C21.1944 3.06408 21.7555 3.0607 22.3166 3.06239C22.4349 3.06239 22.5549 3.0776 22.6732 3.08437C22.7544 3.08944 22.7882 3.12831 22.8084 3.21112C23.0451 4.18126 23.3577 5.1311 23.6197 6.09448C23.7008 6.39025 23.7668 6.6911 23.8428 6.98856C23.8631 7.068 23.8698 7.15419 23.9544 7.21503L23.956 7.21165Z" fill="white"></path>
  <path d="M17.9505 4.50748C18.0502 4.47537 18.0536 4.39933 18.0806 4.33679C18.3933 3.58638 18.9764 3.19594 19.7657 3.09792C20.2169 3.04214 20.2068 3.05229 20.1916 3.50693C20.1696 4.14918 20.0767 4.78975 20.1003 5.43369C20.1071 5.59932 20.0124 5.55706 19.9262 5.52832C19.6237 5.42523 19.3161 5.37282 18.9967 5.43705C18.5082 5.53508 18.1972 5.86466 18.1178 6.35649C18.0739 6.6286 18.0857 6.90071 18.084 7.17282C18.0806 7.87253 18.0739 8.57225 18.084 9.27197C18.0874 9.47816 18.0688 9.5407 17.8153 9.54577C17.2339 9.5576 16.6525 9.55253 16.0711 9.56943C15.8868 9.5745 15.8378 9.52887 15.8344 9.34127C15.8006 7.32663 15.8141 5.312 15.8277 3.29736C15.8277 3.12159 15.8649 3.04383 16.0727 3.05397C16.5696 3.07594 17.0682 3.0675 17.5651 3.06243C17.7155 3.06074 17.7696 3.10974 17.7848 3.26355C17.8288 3.67763 17.893 4.09002 17.9505 4.50917V4.50748Z" fill="white"></path>
  <path d="M36.4802 4.5531C36.5224 4.45338 36.5647 4.35199 36.6086 4.25227C36.9314 3.52383 37.5281 3.18579 38.2886 3.10128C38.7297 3.05227 38.723 3.06579 38.6892 3.52382C38.6436 4.13733 38.6114 4.75254 38.5759 5.36606C38.5624 5.58578 38.5421 5.60268 38.341 5.51479C38.0165 5.37282 37.6852 5.37451 37.354 5.46916C36.8943 5.60268 36.6086 6.01337 36.6069 6.54239C36.6036 7.48041 36.6019 8.41843 36.6086 9.35646C36.6086 9.51702 36.5748 9.5711 36.4024 9.56772C35.7788 9.55589 35.1534 9.55758 34.5298 9.56434C34.3878 9.56434 34.3371 9.5373 34.3371 9.38181C34.3405 7.33844 34.3371 5.29507 34.332 3.25171C34.332 3.10129 34.3608 3.04719 34.5298 3.05226C35.0486 3.06747 35.5675 3.06579 36.0864 3.06241C36.2165 3.06241 36.2723 3.09284 36.2858 3.23143C36.3281 3.66917 36.4379 4.09845 36.4802 4.55141V4.5531Z" fill="white"></path>
  <path d="M23.6361 26.4977C23.6361 27.5051 23.6328 28.5124 23.6395 29.5197C23.6395 29.6735 23.6159 29.7394 23.4384 29.736C22.8147 29.7242 22.1894 29.7276 21.5657 29.7343C21.4119 29.7343 21.3629 29.6921 21.3629 29.5332C21.368 27.5051 21.3663 25.4752 21.3629 23.447C21.3629 23.2814 21.3917 23.2121 21.5809 23.2172C22.1978 23.2307 22.8147 23.2307 23.4316 23.2206C23.604 23.2172 23.6412 23.273 23.6395 23.4335C23.6328 24.4544 23.6361 25.4769 23.6361 26.4977Z" fill="white"></path>
  <path d="M23.3983 16.3908C23.3983 17.4133 23.3949 18.4341 23.4016 19.4567C23.4016 19.602 23.3661 19.6527 23.2157 19.651C22.5836 19.6443 21.9532 19.6443 21.3211 19.651C21.1926 19.651 21.1622 19.6172 21.1622 19.4854C21.1656 17.4775 21.1622 15.468 21.1622 13.4601C21.1622 13.4043 21.1673 13.3486 21.1673 13.2928C21.1673 13.1474 21.2248 13.09 21.3836 13.0933C22.0005 13.1052 22.6174 13.1069 23.236 13.1001C23.3695 13.1001 23.4067 13.1373 23.405 13.264C23.4 13.886 23.4 14.5097 23.3983 15.1316C23.3983 15.5508 23.3983 15.9716 23.3983 16.3908Z" fill="white"></path>
  <path d="M23.5156 11.4928C23.5206 12.1604 22.9663 12.7114 22.2835 12.713C21.6057 12.7164 21.048 12.1806 21.0395 11.5215C21.0311 10.8454 21.555 10.3283 22.2581 10.3232C22.9916 10.3164 23.5088 10.7998 23.5156 11.4928Z" fill="white"></path>
  <path d="M22.4736 22.7558C21.7418 22.7558 21.2364 22.2555 21.2415 21.5372C21.2449 20.9085 21.7975 20.4082 22.4871 20.4082C23.1902 20.4082 23.7226 20.9203 23.7192 21.5913C23.7158 22.269 23.1936 22.7575 22.4753 22.7575L22.4736 22.7558Z" fill="white"></path>
</svg>
