<?xml version="1.0" encoding="UTF-8"?>
<svg xmlns="http://www.w3.org/2000/svg" width="95" height="30" viewBox="0 0 95 30" fill="none">
  <path d="M60.3464 19.9825C59.2246 18.7058 57.739 18.2528 56.115 18.1895C54.6833 18.1331 53.247 18.1824 51.8154 18.173C51.5995 18.173 51.5573 18.2528 51.5596 18.4429C51.5667 19.7619 51.562 21.0809 51.5667 22.3998C51.5737 24.8735 51.5831 27.3448 51.5901 29.8184H57.0326C56.8449 29.6893 56.6031 29.7198 56.3872 29.6142C56.589 29.5555 56.758 29.64 56.9317 29.6447C57.1054 29.6494 57.2884 29.6658 57.455 29.6306C59.4734 29.2082 60.7853 27.9948 61.4237 26.0563C61.7687 25.0119 61.7874 23.9347 61.6349 22.8622C61.4823 21.792 61.0763 20.811 60.3488 19.9825H60.3464ZM59.5321 25.7277C59.0627 27.1171 57.8611 28.0254 56.3708 28.0676C55.4836 28.0934 54.5965 28.0699 53.7094 28.084C53.4653 28.0887 53.4723 27.9503 53.4723 27.786C53.4723 26.5069 53.4723 25.2255 53.4723 23.9464C53.4723 22.6767 53.4747 21.4071 53.47 20.1374C53.47 19.9403 53.5193 19.8534 53.7352 19.8722C54.505 19.9309 55.2748 19.8745 56.0446 19.8839C57.3846 19.9004 58.5018 20.3603 59.2199 21.5526C59.5344 22.0759 59.694 22.6533 59.7503 23.2564C59.8278 24.0919 59.8067 24.9204 59.5344 25.7277H59.5321Z" fill="white"></path>
  <path d="M84.0927 25.2255C84.0388 25.1621 83.9402 25.1011 83.9754 25.0073C84.0129 24.904 84.1279 24.9533 84.2101 24.9368C85.1488 24.735 85.8834 24.2562 86.2824 23.3597C86.5687 22.7167 86.6368 22.0267 86.5781 21.3367C86.4889 20.2735 86.0853 19.37 85.1183 18.7926C84.4119 18.3702 83.6257 18.2153 82.8254 18.1918C81.49 18.1543 80.1523 18.1848 78.8169 18.1754C78.6151 18.1754 78.6104 18.2552 78.6104 18.4195C78.5798 22.1534 78.5845 25.8897 78.608 29.6236C78.608 29.6893 78.5845 29.755 78.5728 29.8208H80.5043C80.4316 29.6799 80.4949 29.5344 80.4949 29.3913C80.4879 28.0348 80.4949 26.6806 80.4832 25.3241C80.4832 25.1316 80.5325 25.0636 80.7202 25.0659C81.0605 25.0683 81.4008 25.0636 81.7435 25.0495C81.9054 25.0425 81.9899 25.141 82.0767 25.2466C83.2455 26.6337 84.419 28.0207 85.583 29.41C85.691 29.5391 85.8506 29.6377 85.8881 29.8231H87.9957C87.7117 29.4054 87.362 29.0439 87.0358 28.6614C86.0594 27.5137 85.0737 26.3755 84.0927 25.2302V25.2255ZM82.5133 23.4982C81.9101 23.4935 81.307 23.4747 80.7038 23.4747C80.5231 23.4747 80.4738 23.4207 80.4809 23.2377C80.4949 22.7143 80.4855 22.1933 80.4855 21.6699C80.4855 21.1466 80.4879 20.6232 80.4855 20.1022C80.4855 19.9614 80.4855 19.8511 80.6756 19.8581C81.483 19.884 82.2903 19.783 83.0976 19.8652C83.9801 19.9544 84.5762 20.4895 84.7381 21.3437C84.886 22.1252 84.5128 22.9021 83.8252 23.2471C83.4145 23.4536 82.9709 23.5029 82.5203 23.4982H82.5133Z" fill="white"></path>
  <path d="M72.4172 28.0747C70.8378 28.0887 69.2583 28.077 67.6788 28.0864C67.4488 28.0864 67.3831 28.0277 67.3878 27.793C67.4019 26.7933 67.4019 25.7958 67.3855 24.796C67.3808 24.5332 67.4441 24.451 67.7211 24.4534C69.1245 24.4675 70.5303 24.4534 71.9338 24.4651C72.1356 24.4651 72.206 24.4205 72.1966 24.2117C72.1802 23.815 72.1849 23.4161 72.1966 23.0194C72.2013 22.8411 72.1591 22.7472 71.9549 22.7589C71.7507 22.7706 71.5465 22.7542 71.34 22.7519C70.122 22.7495 68.9016 22.7448 67.6835 22.7495C67.4699 22.7495 67.3808 22.7002 67.3855 22.4562C67.4042 21.6911 67.3972 20.9236 67.3855 20.1585C67.3831 19.9614 67.4347 19.884 67.646 19.884C69.2442 19.8933 70.8448 19.884 72.443 19.9004C72.6684 19.9004 72.7083 19.8276 72.7012 19.6375C72.6871 19.2503 72.6707 18.8607 72.6871 18.4735C72.6989 18.2247 72.6097 18.1707 72.3726 18.1731C70.1595 18.1824 67.9464 18.1824 65.7309 18.1731C65.468 18.1731 65.3953 18.2317 65.3953 18.5016C65.4047 22.2755 65.4023 26.0469 65.4 29.8208H72.6566C72.673 29.3373 72.6824 28.8515 72.7083 28.368C72.72 28.1451 72.6543 28.0723 72.4125 28.0747H72.4172Z" fill="white"></path>
  <path d="M94.4636 9.38153C94.5058 9.04122 94.5316 8.78307 94.4636 8.52725C94.243 7.70818 93.7008 7.14023 92.9921 6.72717C92.0885 6.20146 91.0746 5.93157 90.103 5.56076C89.7205 5.41525 89.3614 5.23689 89.0234 4.9975C88.3687 4.53281 88.4062 3.19508 89.1807 2.79845C89.4271 2.67172 89.6759 2.56845 89.9458 2.52621C91.3891 2.28917 92.6541 2.72335 93.8182 3.54711C93.8745 3.58701 93.9097 3.68323 94.0271 3.6316C94.0271 3.14344 93.9989 2.64824 94.0364 2.15774C94.0646 1.78693 93.9214 1.59214 93.5999 1.43959C92.2152 0.794187 90.7719 0.550108 89.2793 0.918573C87.2633 1.41612 86.4019 2.93691 86.7774 4.80505C87.0004 5.91514 87.7608 6.5981 88.7512 7.06044C89.5374 7.42655 90.3706 7.66828 91.1732 7.9945C91.5886 8.16348 92.0111 8.32542 92.3396 8.64225C92.7597 9.04827 92.8865 9.5505 92.7433 10.1091C92.586 10.724 92.1261 11.0338 91.5511 11.1886C90.6804 11.4233 89.812 11.3412 88.953 11.1089C88.2208 10.9117 87.559 10.5644 86.9582 10.1091C86.9018 10.0668 86.8572 10.0152 86.7798 10.0387C86.7282 10.0527 86.7446 10.095 86.7493 10.1325C86.8103 10.6442 86.7704 11.1581 86.7774 11.6721C86.7821 11.9397 86.8807 12.1063 87.1178 12.2236C88.6667 12.9981 90.2814 13.3032 91.9829 12.8503C93.3558 12.4865 94.3415 11.7167 94.5621 10.2217C94.5739 10.1443 94.588 10.0668 94.6724 10.0316V8.9849C94.6185 9.09286 94.5621 9.20082 94.4683 9.38387L94.4636 9.38153Z" fill="white"></path>
  <path d="M36.537 23.7633C35.908 23.4536 35.2392 23.2423 34.5773 23.0123C33.9531 22.7964 33.3053 22.6345 32.7491 22.2637C31.9863 21.7544 31.9981 20.6889 32.7655 20.1867C33.0471 20.0036 33.3546 19.9003 33.6902 19.8581C35.0068 19.6891 36.1991 20.0106 37.3044 20.7171C37.4476 20.8086 37.5696 20.9447 37.7668 20.9893C37.6823 20.4167 37.7245 19.8557 37.7527 19.2972C37.7597 19.1423 37.6682 19.0695 37.5532 19.0085C37.2364 18.8372 36.9031 18.6964 36.5605 18.5861C35.0702 18.1026 33.5799 18.0158 32.1084 18.6471C31.0312 19.1118 30.3928 19.9426 30.3294 21.1043C30.2708 22.1557 30.658 23.0569 31.5663 23.6859C32.1178 24.0684 32.7374 24.2914 33.3593 24.5191C34.115 24.7983 34.9036 24.9955 35.6217 25.371C36.0864 25.6151 36.415 25.9601 36.4384 26.5186C36.4689 27.2814 36.1263 27.7766 35.3518 27.9972C33.9742 28.3868 32.6716 28.1122 31.4231 27.4902C31.0875 27.3236 30.7753 27.1124 30.4257 26.9059C30.4257 27.4738 30.4327 28.0042 30.4233 28.537C30.4186 28.7482 30.5031 28.8679 30.6932 28.9664C31.5592 29.4194 32.4675 29.6987 33.4954 29.64C33.3053 29.816 33.0777 29.6963 32.9181 29.816H35.1429C34.8637 29.6658 34.5445 29.6729 34.2347 29.6048C34.4295 29.5907 34.6149 29.5884 34.8003 29.6142C36.4314 29.8371 38.0578 28.6168 38.2784 27.0068C38.4732 25.5916 37.8325 24.397 36.537 23.7587V23.7633Z" fill="white"></path>
  <path d="M9.54134 18.1754C8.98512 18.1871 8.42891 18.1824 7.87269 18.1754C7.71779 18.1754 7.65443 18.2035 7.65443 18.3842C7.65443 21.9445 7.64973 25.5048 7.64504 29.0627C7.64504 29.3138 7.68024 29.5673 7.63565 29.8184H9.80185C9.79715 29.7691 9.79011 29.7222 9.79011 29.6729C9.79246 25.9296 9.79481 22.1839 9.80185 18.4406C9.80185 18.2411 9.75022 18.1683 9.54134 18.173V18.1754Z" fill="white"></path>
  <path d="M45.4148 18.1754C44.8586 18.1824 44.3024 18.1848 43.7485 18.1754C43.556 18.1707 43.5044 18.227 43.5068 18.4194C43.5138 22.2191 43.5138 26.0187 43.5138 29.8207H45.6213C45.626 26.0117 45.6284 22.2003 45.6378 18.3913C45.6378 18.22 45.5767 18.1754 45.4172 18.1777L45.4148 18.1754Z" fill="white"></path>
  <path d="M8.74266 9.55754C8.73562 8.3395 8.19817 7.42186 7.10921 6.83982C7.03646 6.79993 6.91207 6.78819 6.91442 6.68962C6.91676 6.59809 7.02707 6.56992 7.10921 6.54176C7.34859 6.45493 7.51053 6.27187 7.67247 6.09116C8.24277 5.46453 8.37185 4.70883 8.33664 3.89915C8.28971 2.88528 7.85318 2.09437 6.98248 1.55928C6.29248 1.13449 5.52035 0.965507 4.7224 0.953772C3.3565 0.93265 1.9906 0.953773 0.627046 0.939691C0.357151 0.937344 0.312561 1.02418 0.312561 1.26826C0.321949 3.14109 0.317254 5.01158 0.317254 6.88442C0.317254 8.76664 0.321949 10.6489 0.312561 12.5311C0.312561 12.7611 0.359499 12.8526 0.612965 12.8526C1.96948 12.8456 3.32365 12.8526 4.68016 12.8596C5.2575 12.8596 5.82545 12.808 6.38402 12.6484C7.84145 12.2377 8.7497 11.0666 8.73796 9.55754H8.74266ZM2.20652 4.28404C2.20652 3.81935 2.20652 3.35466 2.20652 2.88997C2.20652 2.72334 2.23468 2.61069 2.44355 2.61539C3.20161 2.62947 3.962 2.62946 4.72006 2.63885C4.92424 2.6412 5.12607 2.6811 5.32321 2.73508C6.17514 2.96742 6.55299 3.47905 6.52483 4.37322C6.49901 5.19933 6.06014 5.72504 5.23638 5.89871C4.54404 6.04422 3.83996 5.95269 3.14059 5.97616C2.91763 5.9832 2.69233 5.95973 2.46937 5.97616C2.25346 5.99258 2.19948 5.90106 2.20417 5.70861C2.21121 5.23454 2.20652 4.76046 2.20652 4.28639V4.28404ZM5.21525 11.1323C4.29292 11.1839 3.36589 11.1581 2.44121 11.1699C2.23703 11.1722 2.19947 11.0596 2.20182 10.8906C2.20652 10.3766 2.20182 9.86264 2.20182 9.35101H2.2206C2.2206 8.84643 2.2206 8.34419 2.2206 7.8396C2.2206 7.70348 2.23233 7.58145 2.41774 7.58849C3.3612 7.62604 4.307 7.53216 5.25046 7.63542C6.29718 7.75042 6.88156 8.40521 6.87217 9.4402C6.86278 10.3602 6.19626 11.0783 5.21525 11.1347V11.1323Z" fill="white"></path>
  <path d="M49.7145 5.06553C52.3876 7.70581 55.0302 10.3156 57.6916 12.9441C57.6916 12.1485 57.6916 11.3881 57.6916 10.6277C57.6986 7.50397 57.701 4.38258 57.7174 1.25885C57.7174 1.00069 57.647 0.920886 57.3935 0.930274C56.9641 0.944355 56.5346 0.944358 56.1074 0.925583C55.861 0.913848 55.8 0.991298 55.8 1.23538C55.8094 3.59167 55.807 5.94797 55.8047 8.30427C55.8047 8.36763 55.8375 8.43804 55.7624 8.5061C55.7343 8.48497 55.7061 8.46385 55.6803 8.44038C54.8307 7.61192 53.9835 6.78112 53.1315 5.95736C51.4347 4.31452 49.7332 2.67403 48.0341 1.0312C47.9801 0.979565 47.9214 0.892724 47.844 0.923234C47.7524 0.958437 47.8041 1.05701 47.8064 1.12976C47.8111 1.24476 47.8252 1.36211 47.8252 1.47711C47.8252 4.40605 47.8228 7.33499 47.8181 10.2616C47.8181 11.0267 47.8158 11.7941 47.8088 12.5592C47.8088 12.7352 47.8275 12.8455 48.0599 12.8385C48.4589 12.8244 48.8578 12.8549 49.2592 12.8573C49.7027 12.862 49.7004 12.8573 49.6886 12.4325C49.6863 12.2964 49.6933 12.1602 49.6933 12.0265C49.698 9.91189 49.7027 7.79733 49.7121 5.68511C49.7121 5.49736 49.644 5.30961 49.7121 5.06553H49.7145Z" fill="white"></path>
  <path d="M25.6632 18.3795C25.1962 18.396 24.7268 18.403 24.2598 18.3913C24.0157 18.3842 23.957 18.4664 23.9594 18.7058C23.9688 20.879 23.9664 23.0499 23.9664 25.2231C23.9664 25.3334 23.9664 25.4461 23.9664 25.6268C21.1971 23.1461 18.4864 20.7171 15.7499 18.2645C15.6771 18.4288 15.7147 18.5532 15.7147 18.6753C15.7147 22.2144 15.717 25.7559 15.7123 29.295C15.7123 29.5508 15.7992 29.6048 16.0315 29.5954C16.4704 29.579 16.9092 29.572 17.3481 29.5978C17.6086 29.6142 17.6509 29.518 17.6485 29.288C17.6415 27.0678 17.6438 24.8453 17.6462 22.6251C17.6462 22.5242 17.6157 22.4162 17.6884 22.2942C20.4061 24.7678 23.1145 27.2344 25.8768 29.748C25.8768 29.3748 25.8768 29.0979 25.8768 28.8186C25.8838 25.425 25.8909 22.029 25.9026 18.6354C25.9026 18.4546 25.8721 18.3725 25.6679 18.3795H25.6632Z" fill="white"></path>
  <path d="M19.0262 12.9089C20.8544 12.4959 22.164 11.1323 22.3189 8.99896C22.509 6.39623 22.3658 3.78178 22.394 1.17436C22.394 0.995999 22.3353 0.93967 22.1593 0.944364C21.7016 0.953752 21.2417 0.963139 20.784 0.944364C20.5235 0.932629 20.446 0.998349 20.446 1.27294C20.4578 3.63862 20.4578 6.00665 20.4507 8.37234C20.4507 9.06233 20.2912 9.72415 19.8945 10.2991C19.2656 11.2121 18.3268 11.3952 17.3082 11.2778C16.1254 11.1417 15.4354 10.5174 15.1444 9.3815C15.0247 8.90978 14.9989 8.42397 15.0012 7.93816C15.0036 6.124 15.0059 4.30983 15.0059 2.49567C15.0059 2.04976 14.9989 1.60385 15.0036 1.15793C15.0036 1.01712 14.9754 0.942017 14.8135 0.944364C14.2878 0.951405 13.7597 0.951407 13.234 0.946713C13.0979 0.946713 13.0533 0.984266 13.0556 1.13212C13.0627 2.37364 13.0603 3.61515 13.0603 4.85666C13.0627 4.85666 13.0674 4.85666 13.0697 4.85666C13.0697 5.81655 13.0697 6.77644 13.0697 7.73867C13.0697 8.3207 13.0814 8.90508 13.2011 9.47538C13.5391 11.0736 14.3722 12.2776 16.001 12.7892C16.9914 13.099 17.9982 13.1436 19.0285 12.9113L19.0262 12.9089Z" fill="white"></path>
  <path d="M70.103 12.6672C70.1054 12.2213 70.1124 11.7753 70.1218 11.3294C70.1265 11.1558 70.0702 11.1065 69.8824 11.1065C68.3311 11.1182 66.7798 11.1088 65.2309 11.1159C65.0173 11.1159 64.9375 11.0525 64.9398 10.8342C64.9492 9.757 64.9539 8.67977 64.9469 7.60488C64.9469 7.36785 65.0314 7.32325 65.259 7.3256C66.6249 7.33968 67.9908 7.3303 69.3544 7.33734C69.5539 7.33734 69.629 7.27163 69.6219 7.06745C69.6078 6.68021 69.6031 6.29062 69.6219 5.90338C69.636 5.66164 69.5632 5.59828 69.3192 5.60063C67.9533 5.61236 66.5874 5.60063 65.2215 5.61236C65.0079 5.61236 64.9281 5.56073 64.9328 5.33543C64.9469 4.54921 64.9469 3.763 64.9422 2.97913C64.9422 2.76321 64.9938 2.67638 65.2402 2.67638C66.7822 2.69046 68.3217 2.68107 69.8637 2.69515C70.089 2.69515 70.1218 2.61301 70.1148 2.42291C70.1007 2.02628 70.089 1.62731 70.103 1.23068C70.1124 0.998335 70.035 0.942009 69.8073 0.944356C67.6529 0.953743 65.4961 0.953743 63.3416 0.944356C63.1046 0.944356 63.0553 1.01242 63.0576 1.23538C63.067 3.1176 63.0623 4.99982 63.0623 6.88204C63.0623 8.74548 63.0623 10.6066 63.0623 12.47C63.0623 12.8479 63.0623 12.8526 63.4308 12.8526C65.5852 12.8573 67.7421 12.8573 69.8965 12.8667C70.0584 12.8667 70.103 12.815 70.103 12.6695V12.6672Z" fill="white"></path>
  <path d="M32.4521 12.8221C33.3533 12.571 34.1043 12.0969 34.5901 11.2684C34.9375 10.677 35.0173 10.0316 34.9703 9.36039C34.8999 8.36999 34.5127 7.55092 33.6889 6.9595C33.2195 6.62154 32.6962 6.39155 32.1564 6.18971C31.4194 5.91278 30.6778 5.64523 29.9456 5.35656C29.61 5.22279 29.3049 5.0233 29.0983 4.71116C28.5445 3.87332 29.0162 2.83833 30.0606 2.57782C30.9524 2.35487 31.8208 2.47221 32.675 2.75149C33.2148 2.92751 33.6983 3.22088 34.1606 3.5471C34.2123 3.5823 34.2615 3.6574 34.3366 3.61515C34.4141 3.57056 34.3648 3.49312 34.3648 3.42975C34.3648 2.98384 34.3484 2.53558 34.3765 2.09201C34.3953 1.79396 34.278 1.62967 34.0222 1.49824C32.4849 0.723765 30.8914 0.528971 29.2368 1.0359C27.8521 1.46069 26.9415 2.7069 27.0166 4.10566C27.0824 5.30258 27.6057 6.25308 28.6947 6.85623C29.4316 7.2646 30.2296 7.51103 31.0134 7.7997C31.4875 7.97571 31.9569 8.16346 32.3958 8.41928C32.9567 8.74315 33.1444 9.23835 33.1045 9.86967C33.0693 10.4329 32.7666 10.7756 32.3066 11.0314C31.9757 11.2168 31.6095 11.2778 31.2411 11.306C29.7977 11.4139 28.5116 10.9868 27.3546 10.1419C27.2959 10.0997 27.2466 9.99405 27.1668 10.0316C27.0683 10.0785 27.1293 10.1865 27.1269 10.2686C27.1222 10.501 27.1269 10.7333 27.1269 10.9657H27.1246C27.1246 11.2379 27.1269 11.5078 27.1246 11.7801C27.1222 11.9514 27.1833 12.0687 27.3429 12.1556C28.9622 13.0169 30.6543 13.3173 32.4474 12.8174L32.4521 12.8221Z" fill="white"></path>
  <path d="M82.6512 9.74058C82.6864 8.45212 82.163 7.43356 81.0365 6.74592C80.4568 6.39154 79.8114 6.20614 79.1895 5.95267C78.5253 5.68043 77.8118 5.52084 77.1993 5.1289C76.6947 4.80503 76.5093 4.33799 76.5774 3.75596C76.6454 3.17862 76.9881 2.83362 77.5161 2.64587C77.8119 2.54261 78.1146 2.4722 78.4291 2.46281C79.7621 2.41822 80.9379 2.83832 82.0316 3.71841C82.0316 3.03546 82.0316 2.41822 82.0316 1.80099C82.0316 1.6813 81.9565 1.63905 81.8673 1.59211C81.2031 1.23538 80.5084 0.974871 79.7574 0.857526C78.6473 0.683854 77.5584 0.704982 76.5234 1.1861C75.4908 1.66721 74.8289 2.45812 74.7257 3.61514C74.613 4.86605 74.9721 5.9292 76.0658 6.67551C76.8261 7.19418 77.7062 7.42887 78.5441 7.75979C79.1144 7.98274 79.7105 8.14937 80.208 8.52253C81.0341 9.13742 81.006 10.3696 80.1517 10.9258C79.7293 11.2004 79.2505 11.2919 78.7624 11.313C77.3542 11.3787 76.0939 10.961 74.9768 10.1114C74.9228 10.0715 74.8759 9.99874 74.8031 10.0363C74.728 10.0738 74.7679 10.1583 74.7679 10.2217C74.7656 10.7357 74.7749 11.2496 74.7632 11.7636C74.7585 11.9537 74.8242 12.0593 74.9932 12.1532C75.6785 12.5381 76.4131 12.7751 77.1829 12.93C78.361 13.1671 79.5157 13.1037 80.6235 12.6414C81.9025 12.1086 82.6136 11.1346 82.6535 9.74527L82.6512 9.74058Z" fill="white"></path>
  <path d="M41.8303 0.942048C41.3327 0.953783 40.8352 0.95613 40.3376 0.942048C40.1475 0.937355 40.1147 1.00541 40.1147 1.17674C40.1194 4.97873 40.1194 8.78072 40.1147 12.5851C40.1147 12.7916 40.1804 12.8503 40.3775 12.8479C40.8446 12.8432 41.3139 12.8432 41.781 12.8714C42.0391 12.8878 42.0884 12.7963 42.0861 12.5616C42.0767 10.6794 42.0814 8.79715 42.0814 6.91728H42.0837C42.0837 5.01628 42.0814 3.11529 42.0884 1.21429C42.0884 1.01246 42.0368 0.939699 41.8279 0.94674L41.8303 0.942048Z" fill="white"></path>
</svg>
