<?xml version="1.0" encoding="UTF-8"?>
<svg xmlns="http://www.w3.org/2000/svg" width="102" height="27" viewBox="0 0 102 27" fill="none">
  <path d="M57.9402 0.212082V8.50641C58.2691 8.38486 58.5873 8.27045 58.9054 8.1489C60.1174 7.69128 61.3473 7.55185 62.6522 7.64838C64.3718 7.77351 65.6982 8.56362 66.7994 9.76844C67.8504 10.9161 68.5476 12.2925 68.7442 13.8477C68.8837 14.9488 68.9623 16.0714 68.9266 17.1797C68.8551 19.3069 68.2294 21.2697 66.9066 22.9822C65.8877 24.2978 64.5399 25.1451 63.0061 25.7207C62.1517 26.0425 61.2686 26.2499 60.3426 26.2534C59.549 26.2534 58.7481 26.3786 57.9616 26.3178C56.721 26.2213 55.4876 26.0246 54.2542 25.8566C53.8538 25.803 53.4641 25.6743 53.0637 25.6314C52.7455 25.5956 52.6275 25.4597 52.6346 25.1523C52.6704 23.6936 52.6918 22.235 52.7276 20.7763C52.749 19.9683 52.8062 19.1603 52.8098 18.3559C52.8205 15.5888 52.8349 12.8216 52.8063 10.0509C52.7884 8.43491 52.7133 6.81895 52.6275 5.20656C52.6025 4.70961 52.4952 4.20552 52.3486 3.72645C52.1091 2.93992 51.5263 2.5824 50.7219 2.5252C50.4574 2.50732 50.2286 2.47515 50.2357 2.16053C50.2429 1.89955 50.1571 1.59924 50.6075 1.52416C51.8159 1.32395 53.01 1.06297 54.2113 0.830586C55.3017 0.619653 56.3885 0.41229 57.479 0.212082C57.622 0.187056 57.7721 0.208509 57.933 0.208509L57.9402 0.212082ZM57.933 15.9356C57.933 15.9356 57.9259 15.9356 57.9223 15.9356C57.9223 16.9116 57.9151 17.8876 57.9223 18.8636C57.9366 20.7263 57.9545 22.5925 57.9902 24.4551C57.9902 24.6089 58.1296 24.8877 58.2083 24.8877C58.7338 24.9056 59.2737 24.9199 59.7849 24.8269C60.8575 24.6303 61.501 23.876 62.0122 22.9786C63.1062 21.0695 63.403 18.9494 63.4673 16.815C63.5066 15.5816 63.2743 14.3268 63.0312 13.1076C62.8309 12.1066 62.3376 11.1949 61.5939 10.4549C60.6608 9.52891 59.5096 9.53606 58.3298 9.73626C58.194 9.75771 58.0152 9.96865 57.9938 10.1117C57.933 10.5085 57.933 10.9161 57.933 11.3201C57.9259 12.8574 57.933 14.3983 57.933 15.9356Z" fill="white"></path>
  <path d="M21.1951 0.709034C21.1951 1.67432 21.1844 2.64319 21.1951 3.61205C21.213 4.86335 21.2202 6.11823 21.2952 7.36953C21.3346 8.05595 20.7911 7.88077 20.4694 8.01663C20.1369 8.15606 19.9975 7.8915 19.8723 7.62694C19.4254 6.68668 19.0393 5.70351 18.4923 4.82403C17.7523 3.62993 16.6297 2.85769 15.2282 2.63604C14.4024 2.50733 13.5479 2.55739 12.7077 2.53951C12.0249 2.52521 11.342 2.55381 10.6592 2.51448C10.2302 2.48946 10.1408 2.64319 10.1408 3.0436C10.1336 4.62024 10.08 6.20046 10.0657 7.77709C10.0514 9.35016 10.0657 10.9232 10.0657 12.5642C10.459 12.5642 10.8951 12.5857 11.3313 12.5606C11.9856 12.5177 12.647 12.4784 13.2941 12.3676C13.9912 12.246 14.5311 11.8099 14.8314 11.1949C15.1567 10.53 15.3605 9.8042 15.6429 9.03912H16.694V17.5229H15.5786C15.4106 17.0117 15.2497 16.4969 15.0709 15.9856C14.6955 14.8916 13.9376 14.2696 12.7721 14.1766C11.8533 14.1015 10.9381 14.0407 10.0478 13.9764C10.0478 15.1347 10.0478 16.2502 10.0478 17.3656C10.0478 17.9269 10.0371 18.4918 10.0764 19.0531C10.1408 19.9219 10.2087 20.7942 10.341 21.6522C10.4375 22.2707 10.5698 22.9071 10.8236 23.4755C11.1847 24.2835 11.982 24.5088 12.79 24.6518C12.9044 24.6732 13.0152 24.709 13.1296 24.7233C13.362 24.7554 13.5944 24.7769 13.8232 24.8055C13.8446 24.8055 13.8768 24.8484 13.8768 24.8699C13.8768 25.163 13.8768 25.4562 13.8768 25.8244H0.791795C0.791795 25.5992 0.770343 25.306 0.80252 25.02C0.813245 24.9199 0.952673 24.784 1.05635 24.759C1.33879 24.6911 1.63552 24.6804 1.92154 24.6303C3.14423 24.4158 3.76988 23.6043 3.98797 22.4602C4.1274 21.7202 4.23823 20.9622 4.25253 20.2079C4.31688 16.7042 4.34549 13.2042 4.37766 9.70052C4.38481 8.73881 4.40984 7.77352 4.33834 6.81538C4.24896 5.63916 4.16673 4.45578 3.74843 3.32961C3.45885 2.55023 2.86895 2.15697 2.09672 2.00324C1.68558 1.92101 1.26014 1.91029 0.813245 1.86381V0.716186H21.188L21.1951 0.709034Z" fill="white"></path>
  <path d="M27.5704 7.43032C28.7645 7.31234 29.93 7.48037 31.0526 7.86649C32.2967 8.29551 33.3693 9.01411 34.2416 10.0044C35.3427 11.2557 35.904 12.7716 36.2329 14.3661C36.3616 14.9882 36.3152 15.6496 36.3366 16.2895C36.3509 16.7042 36.3366 17.119 36.3366 17.5337C36.3366 19.7074 35.6359 21.6272 34.2523 23.3075C33.0296 24.7948 31.4601 25.6636 29.5832 26.089C28.432 26.35 27.2701 26.4429 26.1367 26.3071C23.3589 25.9817 21.1744 24.6697 19.8409 22.1242C19.1724 20.8478 18.8542 19.4821 18.6933 18.0628C18.4609 16.0035 18.7934 14.0443 19.6693 12.1817C20.7633 9.85785 22.558 8.32411 25.0606 7.68416C25.8722 7.4768 26.7195 7.42317 27.5525 7.29804C27.5561 7.34094 27.5632 7.38384 27.5668 7.43032H27.5704ZM27.6025 25.0272C27.8171 24.9986 28.0423 24.995 28.2461 24.9342C29.1506 24.6589 29.6726 23.9904 30.0193 23.1538C30.7594 21.3734 30.788 19.4786 30.8953 17.598C30.9239 17.1047 30.8488 16.6041 30.813 16.1072C30.7558 15.2313 30.7415 14.3518 30.6235 13.483C30.4591 12.2532 30.1159 11.0627 29.4652 9.99012C28.9468 9.13924 28.2318 8.59224 27.1735 8.64945C26.3262 8.69592 25.7828 9.22862 25.386 9.88644C24.721 10.984 24.4636 12.2353 24.3313 13.483C24.2133 14.5913 24.2598 15.7139 24.2455 16.8329C24.2312 18.0735 24.2205 19.3141 24.4886 20.5404C24.7353 21.6594 24.9677 22.7891 25.6434 23.7509C26.1189 24.4266 26.6301 25.0737 27.599 25.0272H27.6025Z" fill="white"></path>
  <path d="M86.5808 16.0392H75.8017C75.8732 18.0878 76.1199 20.0506 77.5071 21.6987C78.3794 22.7391 79.5127 23.3647 80.7962 23.5435C82.4372 23.7723 84.0567 23.5435 85.4618 22.5246C85.5762 22.4423 85.7013 22.3708 85.8443 22.2814C85.9015 22.3565 85.9337 22.3958 85.9623 22.4352C86.352 22.9822 86.3377 23.068 85.8407 23.5864C84.6788 24.7948 83.2952 25.6171 81.6614 26.0282C79.3912 26.6002 77.196 26.4358 75.1046 25.3525C73.0882 24.3086 71.7511 22.6711 70.9967 20.5439C70.5677 19.3284 70.3282 18.0664 70.3818 16.7865C70.4712 14.5234 70.9932 12.3711 72.4411 10.5478C73.5887 9.10347 75.0081 8.0345 76.8636 7.66983C77.6715 7.51253 78.4938 7.3302 79.309 7.33735C80.7462 7.34807 82.144 7.62336 83.3596 8.47067C84.9791 9.59684 85.8908 11.1735 86.2161 13.0898C86.3734 14.0014 86.4592 14.9238 86.5772 15.839C86.5844 15.8927 86.5772 15.9499 86.5772 16.0392H86.5808ZM81.2217 14.6557C81.2288 14.5734 81.2395 14.5305 81.236 14.4876C81.1502 13.7261 81.0286 12.9646 80.9785 12.1995C80.9142 11.2164 80.6782 10.294 80.1598 9.45383C79.62 8.57435 78.837 8.41346 78.2364 8.79243C77.7502 9.09632 77.3426 9.58969 77.0244 10.0795C76.3487 11.1127 76.1128 12.3175 75.8983 13.5152C75.8303 13.887 75.8446 14.2731 75.8196 14.6557H81.2217Z" fill="white"></path>
  <path d="M99.6271 13.2364C99.1158 12.2568 98.7047 11.2915 98.1398 10.4299C97.2389 9.05703 95.7909 8.55293 94.3216 8.92832C93.4099 9.16071 92.8021 10.1117 92.7163 11.0377C92.5733 12.5642 93.5887 13.2864 94.6934 13.8799C95.9411 14.5485 97.2782 15.0454 98.5402 15.6925C99.5806 16.2252 100.467 16.9688 100.961 18.0664C101.118 18.4168 101.229 18.8064 101.264 19.1854C101.454 21.2018 101.125 23.0573 99.527 24.5016C98.4938 25.4348 97.2639 25.971 95.9089 26.1391C94.7184 26.2856 93.4993 26.4 92.3088 26.3035C90.9287 26.1891 89.538 25.9818 88.2224 25.4562C87.8613 25.3096 87.7219 25.1273 87.7326 24.7412C87.754 23.8224 87.7505 22.9071 87.7326 21.9883C87.7254 21.4163 87.6539 20.8479 87.6646 20.2758C87.6646 20.1042 87.8184 19.8218 87.9542 19.786C88.226 19.7181 88.5263 19.6716 88.7122 20.0756C89.1197 20.9658 89.5058 21.8882 90.0707 22.6783C90.9001 23.8367 92.0192 24.6196 93.5601 24.5624C94.7255 24.5195 95.9804 23.8009 96.1735 22.8249C96.4845 21.2483 96.4774 20.5261 94.9722 19.6788C93.8425 19.0424 92.6055 18.6027 91.4221 18.0664C89.8991 17.3728 88.5906 16.4254 88.1795 14.7093C88.0079 13.9979 88.1294 13.2185 88.0901 12.4677C88.0508 11.6919 88.3332 11.0305 88.7229 10.3834C89.6274 8.89257 90.986 8.01666 92.6377 7.60552C94.007 7.26231 95.412 7.31951 96.7991 7.50899C97.8216 7.64842 98.8262 7.91656 99.838 8.11676C100.142 8.17754 100.299 8.33128 100.306 8.64589C100.331 9.82211 100.36 11.0019 100.385 12.1781C100.392 12.4713 100.489 12.8395 100.349 13.0326C100.224 13.2078 99.8308 13.1899 99.6235 13.2399L99.6271 13.2364Z" fill="white"></path>
  <path d="M44.2245 11.0447C44.7 10.3655 45.0611 9.75411 45.5151 9.21784C46.4446 8.11669 47.5958 7.38379 49.0938 7.31586C49.7552 7.28726 50.3952 7.34803 51.0208 7.58042C51.3605 7.70555 51.4784 7.85928 51.3319 8.23824C50.8027 9.60395 50.3022 10.9804 49.8017 12.3568C49.6766 12.7072 49.5371 12.8252 49.1653 12.6214C48.2465 12.1209 47.249 11.8277 46.2015 11.96C45.6152 12.035 45.0468 12.296 44.4819 12.507C44.3568 12.5534 44.2137 12.7429 44.203 12.8752C44.1565 13.4222 44.1494 13.9764 44.1422 14.5269C44.1315 15.0882 44.1422 15.6459 44.1351 16.2072C44.1244 17.1332 44.0564 18.0627 44.1029 18.9851C44.178 20.4402 44.2745 21.8953 44.4676 23.3397C44.5927 24.2906 45.2863 24.7483 46.2623 24.7304C46.2909 24.7304 46.3231 24.7304 46.3517 24.7304C47.4207 24.7769 47.3313 24.523 47.2776 25.785H36.4342C36.4342 25.5455 36.4235 25.2988 36.4342 25.0521C36.445 24.8341 36.5486 24.7447 36.7989 24.7304C38.3291 24.6553 38.7724 23.9295 38.8224 22.6854C38.9476 19.6358 38.9154 16.5791 38.919 13.5223C38.919 12.7966 38.8224 12.0708 38.7509 11.345C38.6615 10.4262 38.0395 10.0222 37.2279 9.81131C37.1028 9.77913 36.9777 9.7255 36.8489 9.7255C36.5737 9.71836 36.4021 9.6683 36.4235 9.32509C36.4414 9.0355 36.4593 8.86747 36.8275 8.80312C38.0359 8.59576 39.2336 8.32762 40.4384 8.08452C41.6968 7.83068 42.9589 7.584 44.2245 7.33731V11.0483V11.0447Z" fill="white"></path>
</svg>
