<?xml version="1.0" encoding="UTF-8"?>
<svg xmlns="http://www.w3.org/2000/svg" width="84" height="30" viewBox="0 0 84 30" fill="none">
  <path d="M83.7493 2.46264C83.7493 1.94646 83.7265 1.43027 83.7113 0.914085C83.6809 0.887517 83.6506 0.860944 83.6202 0.838172C74.3934 0.838172 65.1629 0.830593 55.9361 0.826797C37.5433 0.826797 19.1467 0.826794 0.753929 0.822998H0.347817C0.347817 1.16079 0.347817 1.44166 0.347817 1.72632C0.347817 8.83522 0.344018 15.9441 0.344018 23.053C0.344018 25.1443 0.355406 27.2356 0.362997 29.3269C0.355406 29.5053 0.344017 29.6799 0.336426 29.881H1.59273C1.67243 29.8848 1.74834 29.8962 1.82804 29.8962C9.90858 29.8962 17.9929 29.8962 26.0734 29.8924C26.5137 29.8924 26.954 29.8848 27.3943 29.881C27.9636 29.881 28.5291 29.881 29.0984 29.8848C29.1781 29.8886 29.254 29.9 29.3337 29.9C37.3194 29.9 45.305 29.9 53.2907 29.8924C53.8562 29.8924 54.4255 29.8848 54.9911 29.881C55.5604 29.881 56.1259 29.881 56.6952 29.8848C56.7901 29.8886 56.885 29.8962 56.9761 29.8962C61.8608 29.8962 66.7418 29.8962 71.6266 29.8924C75.312 29.8924 78.9973 29.8848 82.6827 29.881C82.956 29.8848 83.2331 29.9038 83.5025 29.8886C83.5823 29.8848 83.6544 29.771 83.7303 29.7102C83.7379 29.6495 83.7569 29.5888 83.7569 29.5243C83.7569 20.5063 83.7569 11.4882 83.7569 2.47021L83.7493 2.46264ZM27.8877 28.8449C27.8763 28.9094 27.8687 28.9701 27.8573 29.0346C27.7966 29.065 27.7359 29.0992 27.6713 29.1295C27.2311 29.1219 26.7946 29.1068 26.3543 29.1068C18.3041 29.1068 10.2502 29.103 2.2 29.1068C1.96468 29.1068 1.72936 29.1257 1.49404 29.1333C1.36879 29.103 1.24355 29.0726 1.1183 29.0384C1.1183 24.704 1.1107 20.3696 1.1107 16.0352C1.1107 11.3554 1.1107 6.67558 1.1107 1.99578C1.1107 1.88571 1.09552 1.77565 1.08793 1.66938C1.09932 1.63901 1.1145 1.60865 1.12588 1.57829C7.26694 1.58209 13.408 1.58587 19.549 1.58967C22.1793 1.58967 24.8096 1.58967 27.4398 1.58967C27.5802 1.58967 27.7169 1.60485 27.8839 1.61624C27.8839 2.37533 27.8839 3.11165 27.8839 3.84417C27.8839 11.9285 27.8839 20.0128 27.8801 28.0972C27.8801 28.2528 27.8915 28.4122 27.8953 28.5678C27.8953 28.6627 27.8915 28.7538 27.8877 28.8487V28.8449ZM55.2719 29.1333C54.8468 29.1219 54.4217 29.1068 53.9966 29.103C45.8857 29.103 37.7748 29.0992 29.6602 29.0992C29.3755 29.0992 29.0946 29.1105 28.81 29.1181C28.8176 29.0916 28.81 29.0726 28.7872 29.0574C28.7644 29.0195 28.7417 28.9777 28.7189 28.9398L28.6885 28.4691C28.6885 27.8087 28.6923 27.1483 28.6923 26.4879C28.6923 18.3884 28.6999 10.2927 28.7037 2.19315C28.7037 2.00718 28.7037 1.82121 28.7037 1.58589C29.2464 1.58589 29.7778 1.58589 30.313 1.58589C38.515 1.58589 46.7207 1.58967 54.9227 1.59346C55.0973 1.59346 55.2681 1.60864 55.4427 1.61244C55.4958 1.53273 55.5528 1.46822 55.6097 1.43026C55.5528 1.47201 55.4958 1.53273 55.4427 1.61244C55.4427 1.68835 55.4351 1.76427 55.4351 1.84018C55.4351 1.87813 55.4351 1.91608 55.4313 1.95404C55.4313 9.26789 55.4389 16.5818 55.4427 23.8956C55.4427 25.3569 55.4541 26.8181 55.4579 28.2793C55.3972 28.564 55.3364 28.8487 55.2757 29.1295L55.2719 29.1333ZM82.8687 29.1257C79.6122 29.1181 76.3595 29.1106 73.103 29.1068C67.6641 29.0992 62.2214 29.0992 56.7825 29.0954C56.6573 29.0954 56.532 29.1106 56.4068 29.1144C56.3422 28.9436 56.2587 28.7765 56.2208 28.6019C56.1866 28.4349 56.2056 28.2604 56.198 28.0896C56.2132 27.8884 56.2398 27.6835 56.2398 27.4823C56.2398 19.584 56.2398 11.6856 56.236 3.78725C56.236 3.06991 56.2284 2.34877 56.2246 1.63143C56.8053 1.61625 57.386 1.58967 57.9667 1.58967C66.1839 1.58967 74.4048 1.58967 82.622 1.58967C82.7017 1.58967 82.7776 1.60107 82.8573 1.60486C82.8839 1.62763 82.9143 1.6504 82.9408 1.67318C82.9522 3.829 82.9712 5.98101 82.9712 8.13683C82.9712 14.9459 82.9712 21.7587 82.9674 28.5678C82.9674 28.75 82.9105 28.9322 82.8801 29.1144L82.8649 29.1295L82.8687 29.1257Z" fill="white"></path>
  <path d="M70.3917 8.29241C69.6972 8.41766 69.2113 8.90347 68.661 9.28681C68.5927 9.33236 68.475 9.30959 68.3801 9.31718V8.24306H65.135V22.2787C66.0725 22.2787 66.9682 22.2255 67.8602 22.2976C68.3763 22.3394 68.4219 22.1572 68.4219 21.7359C68.4105 19.6484 68.4143 17.5571 68.4219 15.4658C68.4219 14.7371 68.4674 14.0084 68.4902 13.2758C69.0747 11.0973 70.6536 10.2584 72.8056 11.1086C73.1434 11.2415 73.2763 11.1845 73.4281 10.8467C73.7241 10.1712 74.0885 9.52593 74.4225 8.86552C74.4756 8.74786 74.5288 8.63019 74.6009 8.46698C74.2897 8.39866 74.0392 8.34554 73.7925 8.28861C72.6576 8.00395 71.5266 7.95461 70.3917 8.28861V8.29241Z" fill="white"></path>
  <path d="M20.213 11.9133C19.9246 10.5165 19.1844 9.45382 17.9395 8.74407C16.6946 8.03432 15.3321 7.96978 13.9695 8.11781C12.8878 8.23167 11.8858 8.64918 11.1343 9.50316C11.009 9.34375 10.8838 9.18814 10.7623 9.02873C10.6105 8.52267 10.2752 8.27215 9.75652 8.27721C9.525 8.27721 9.29348 8.28861 9.05816 8.29241H8.06375V22.2673H11.4V12.2397C11.6732 11.4616 12.4095 11.1997 13.051 10.9644C13.6051 10.7594 14.2731 10.8468 14.8918 10.8316C15.8672 10.805 16.7895 11.4958 16.9831 12.4408C17.0969 12.995 17.1311 13.5643 17.1994 14.1298C17.1918 16.168 17.188 18.2024 17.1728 20.2405C17.1691 20.8592 17.1159 21.4816 17.1121 22.1003C17.1121 22.18 17.2488 22.3356 17.3209 22.3318C18.0648 22.3128 18.8087 22.2711 19.5488 22.2331H20.4939C20.4939 20.0128 20.4825 17.8418 20.4977 15.6746C20.5053 14.4145 20.4711 13.162 20.213 11.9209V11.9133Z" fill="white"></path>
  <path d="M48.3756 12.5396C48.0492 11.1353 47.3698 9.93594 46.1477 9.11992C45.3013 8.55439 44.3335 8.27733 43.3163 8.15588C41.8399 7.97749 40.409 7.9509 39.1982 9.01363C39.1071 8.9605 38.9477 8.92255 38.9325 8.85423C38.8946 8.66066 38.9211 8.4595 38.9211 8.26214H35.6115C35.6115 8.44432 35.6115 8.58097 35.6115 8.7214C35.6115 13.8908 35.6115 19.0602 35.6115 24.2296C35.6115 25.2658 35.6229 26.302 35.6267 27.3381C35.5356 27.6797 35.6988 27.7822 36.0138 27.7784C36.8792 27.7746 37.7445 27.7746 38.6099 27.786C38.9439 27.7898 39.0768 27.6683 38.9933 27.3343C39.0008 25.5694 39.0046 23.8084 39.0122 22.0435C39.1754 22.0738 39.3386 22.1004 39.5018 22.1384C40.018 22.2636 40.5304 22.4875 41.0466 22.4951C41.9082 22.5103 42.7849 22.4572 43.6351 22.3167C45.4987 22.0017 46.8878 20.9807 47.8329 19.3373C48.2959 18.5327 48.4515 17.6483 48.6299 16.7602C48.6565 16.597 48.7058 16.43 48.702 16.2668C48.6907 15.5798 48.6603 14.8928 48.6375 14.2058C48.5502 13.6479 48.5009 13.0786 48.3756 12.5282V12.5396ZM39.0236 11.5794C39.388 11.3592 39.7258 11.0328 40.1205 10.9379C41.2022 10.6798 42.2877 10.7709 43.3504 11.1391C44.0868 11.3934 44.6333 11.8716 44.8762 12.5776C45.1191 13.2797 45.2899 14.0312 45.3279 14.7676C45.3696 15.5494 45.2823 16.3503 45.1419 17.1245C44.9483 18.1721 44.3714 18.9578 43.358 19.4284C42.561 19.8004 41.7412 19.7814 40.9062 19.7927C40.1812 19.8041 39.5588 19.584 39.0198 19.1058V11.5794H39.0236Z" fill="white"></path>
</svg>
