<?xml version="1.0" encoding="UTF-8"?>
<svg xmlns="http://www.w3.org/2000/svg" width="69" height="30" viewBox="0 0 69 30" fill="none">
  <path d="M9.25892 20.8283C8.95474 20.6156 8.67044 20.4228 8.39409 20.22C6.42783 18.7806 5.00235 16.9038 3.94268 14.7327C3.12556 13.0587 2.69612 11.2794 2.48737 9.43837C2.3144 7.89957 2.40785 6.38661 2.83927 4.89751C3.12556 3.90742 3.56493 2.99288 4.26276 2.2195C5.73994 0.579296 7.88314 0.304937 9.75993 1.41431C11.2411 2.28908 12.2312 3.57342 12.8952 5.12018C13.591 6.7405 13.8912 8.44631 13.9429 10.2058C14.0722 14.5876 13.1636 18.7567 11.3882 22.7528C10.7043 24.2936 9.83746 25.7291 8.74002 27.0134C7.77976 28.1367 6.65845 29.0612 5.23695 29.5482C4.43176 29.8246 3.60271 29.9081 2.75179 29.7272C1.4118 29.4429 0.509187 28.0432 0.600641 27.1088C0.642392 26.6774 0.572806 26.242 0.56883 25.8066C0.55889 24.8424 0.87699 23.9815 1.2945 23.1485C2.09571 21.548 3.26274 20.2657 4.73991 19.2458C5.04211 19.037 5.2449 19.047 5.54511 19.216C6.65249 19.8383 7.79765 20.381 8.99251 20.8144C9.06408 20.8403 9.13764 20.9019 9.25892 20.8303V20.8283Z" fill="white"></path>
  <path d="M29.9516 13.5618C30.1345 13.3113 30.2876 13.0926 30.4526 12.8818C31.6435 11.3569 33.9259 10.8301 35.584 11.7049C36.3971 12.1323 36.9717 12.7784 37.2898 13.6433C37.3156 13.7109 37.3256 13.8103 37.4051 13.8202C37.5005 13.8321 37.4965 13.7168 37.5303 13.6592C38.085 12.7188 38.8107 11.9593 39.8624 11.5836C41.0235 11.1661 42.2004 11.1641 43.3456 11.6253C44.447 12.0707 45.0474 12.9594 45.3556 14.0707C45.5803 14.8779 45.628 15.705 45.626 16.538C45.62 18.711 45.62 20.882 45.622 23.0551C45.622 23.3095 45.6379 23.564 45.6518 23.8185C45.6598 23.9656 45.6101 24.0193 45.453 24.0173C44.9003 24.0093 44.3456 24.0173 43.7929 24.0233C43.6577 24.0233 43.6259 23.9696 43.6259 23.8463C43.6319 21.8224 43.6279 19.7985 43.6379 17.7766C43.6418 16.9555 43.7015 16.1324 43.5782 15.3133C43.5186 14.9216 43.4172 14.5399 43.2442 14.184C42.8744 13.4166 42.2203 13.0508 41.4032 12.9415C40.2282 12.7844 39.3276 13.2079 38.6298 14.1701C38.0055 15.031 37.753 15.9773 37.755 17.0151C37.761 19.2776 37.7649 21.5401 37.7769 23.8026C37.7769 23.9775 37.7292 24.0193 37.5502 24.0133C37.0472 23.9994 36.5422 24.0074 36.0392 24.0233C35.8683 24.0292 35.8066 23.9895 35.8086 23.8085C35.8166 21.719 35.8086 19.6295 35.8225 17.538C35.8285 16.7646 35.8544 15.9932 35.6993 15.2278C35.4726 14.1085 34.9199 13.2715 33.743 12.9971C32.5362 12.7168 31.5163 13.0389 30.7548 14.033C30.2359 14.7109 29.9476 15.4843 29.9456 16.3431C29.9417 18.7866 29.9456 21.23 29.9456 23.6734C29.9456 24.0113 29.9456 24.0094 29.6116 24.0113C29.1246 24.0113 28.6375 24.0074 28.1504 24.0272C27.9138 24.0372 27.9516 23.892 27.9516 23.7549C27.9516 21.7807 27.9516 19.8065 27.9496 17.8323C27.9476 15.8083 27.9436 13.7844 27.9396 11.7605C27.9396 11.6412 27.9277 11.5398 28.1146 11.5458C28.6514 11.5637 29.1882 11.5697 29.725 11.5637C29.9198 11.5617 29.9576 11.6333 29.9516 11.8082C29.9397 12.3351 29.9417 12.8619 29.9397 13.3868C29.9397 13.4325 29.9456 13.4783 29.9516 13.5598V13.5618Z" fill="white"></path>
  <path d="M11.0424 26.9975C11.0285 25.906 11.3585 24.8861 11.7402 23.8881C12.7442 21.2558 13.796 18.6434 14.9351 16.0668C15.6549 14.4385 16.4461 12.852 17.5336 11.4305C18.0963 10.6949 18.7026 10.003 19.4522 9.44633C19.7325 9.23956 20.0267 9.06063 20.3528 8.93538C21.2991 8.56956 22.0109 9.02881 22.0725 10.0348C22.1322 11.0289 21.9234 11.9792 21.5894 12.9076C21.0109 14.514 20.15 15.9694 19.1639 17.3531C18.3547 18.4883 17.4839 19.5718 16.5157 20.5758C16.4103 20.6852 16.3964 20.7985 16.3964 20.9337C16.3805 23.2121 15.7085 25.2817 14.3864 27.1406C14.0027 27.6794 13.5594 28.1665 12.9868 28.5204C12.7085 28.6934 12.4142 28.7947 12.0782 28.7947C11.6607 28.7947 11.3963 28.586 11.2273 28.2321C11.0384 27.8404 11.0563 27.417 11.0484 26.9995L11.0424 26.9975Z" fill="white"></path>
  <path d="M57.8042 17.7626C57.8042 15.7725 57.8042 13.7804 57.8002 11.7903C57.8002 11.6174 57.826 11.5458 58.0288 11.5537C58.5318 11.5716 59.0368 11.5657 59.5398 11.5537C59.7287 11.5498 59.7843 11.6174 59.7784 11.7963C59.7645 12.2894 59.7625 12.7824 59.7565 13.2774C59.7565 13.3431 59.7505 13.4107 59.7645 13.4743C59.7784 13.5379 59.7366 13.6433 59.836 13.6572C59.9096 13.6671 59.9275 13.5757 59.9613 13.522C60.8222 12.1025 62.0806 11.3609 63.7467 11.3012C64.5539 11.2714 65.3272 11.3867 66.041 11.7824C67.0271 12.3291 67.5519 13.2158 67.8621 14.2596C68.0728 14.9693 68.1225 15.701 68.1265 16.4306C68.1424 18.8899 68.1365 21.3492 68.1404 23.8105C68.1404 23.9755 68.0748 24.0153 67.9158 24.0133C67.4128 24.0054 66.9078 24.0034 66.4048 24.0193C66.2179 24.0252 66.1623 23.9755 66.1642 23.7887C66.1722 22.9735 66.1662 22.1604 66.1642 21.3453C66.1642 19.7746 66.1642 18.202 66.1642 16.6314C66.1642 15.9038 66.0788 15.19 65.7905 14.5101C65.2716 13.2874 64.2039 12.8003 62.9713 12.9196C61.3271 13.0806 60.1621 14.2397 59.834 15.9435C59.7645 16.3014 59.7625 16.6632 59.7645 17.0251C59.7684 19.2796 59.7724 21.5341 59.7824 23.7867C59.7824 23.9716 59.7307 24.0213 59.5398 24.0133C59.0448 23.9934 58.5497 23.9994 58.0547 24.0054C57.8758 24.0054 57.7982 23.9676 57.8002 23.7568C57.8101 21.7588 57.8062 19.7587 57.8062 17.7587L57.8042 17.7626Z" fill="white"></path>
  <path d="M47.9253 21.4923C48.6609 22.053 49.4999 22.3989 50.4144 22.5302C51.0188 22.6176 51.6351 22.6156 52.2335 22.4586C53.6928 22.0729 53.7743 20.4804 52.9811 19.715C52.667 19.4128 52.3071 19.1901 51.9194 19.0032C51.2673 18.6871 50.6053 18.3889 49.9651 18.0529C49.1997 17.6513 48.5277 17.1344 48.1778 16.3113C47.631 15.027 47.8637 13.3073 49.2394 12.2277C49.9631 11.6591 50.7882 11.3688 51.6987 11.2992C52.7186 11.2217 53.7067 11.3529 54.6531 11.7505C54.8479 11.8321 54.9473 11.9295 54.9374 12.1661C54.9155 12.6889 54.9294 13.2138 54.9294 13.7804C54.4225 13.4564 53.9115 13.2416 53.3648 13.1104C52.6431 12.9394 51.9274 12.8381 51.1957 13.0746C50.1977 13.3987 49.7186 14.2377 49.9711 15.2536C50.0725 15.6612 50.3428 15.9435 50.6649 16.1821C51.2256 16.5976 51.8717 16.8561 52.5079 17.1264C52.9851 17.3292 53.4582 17.542 53.8996 17.8183C55.0408 18.532 55.5935 19.5758 55.4921 20.8939C55.3867 22.2618 54.6809 23.2936 53.3886 23.8204C51.6689 24.5203 49.9412 24.4209 48.2354 23.725C47.9869 23.6236 47.8716 23.4765 47.8855 23.1862C47.9114 22.6614 47.8895 22.1345 47.8895 21.6077C47.8895 21.5699 47.8716 21.5242 47.9293 21.4943L47.9253 21.4923Z" fill="white"></path>
</svg>
