<?xml version="1.0" encoding="UTF-8"?>
<svg xmlns="http://www.w3.org/2000/svg" width="95" height="27" viewBox="0 0 95 27" fill="none">
  <path d="M34.0062 10.5867C34.0062 7.26052 34.0094 3.93113 33.9997 0.604951C33.9997 0.302863 34.064 0.196808 34.3886 0.200022C35.8444 0.219304 37.297 0.21609 38.7528 0.200022C39.0324 0.200022 39.1192 0.277146 39.116 0.556737C39.1031 2.85774 39.0999 5.16196 39.0999 7.46297C39.0999 7.5883 39.026 7.75863 39.1609 7.82933C39.3313 7.9161 39.4052 7.72329 39.508 7.6333C41.1052 6.24499 43.3934 5.72437 45.6655 7.03556C46.9863 7.80042 47.4908 9.0634 47.7351 10.4646C47.8926 11.3708 47.8926 12.2899 47.8926 13.2091C47.8861 15.6579 47.8893 18.1067 47.9022 20.5556C47.9022 20.8577 47.8476 20.9701 47.5101 20.9605C46.0704 20.9187 44.6274 20.8962 43.1877 20.9734C42.9306 20.9862 42.8342 20.9284 42.8438 20.6456C42.9242 18.171 42.876 15.6965 42.876 13.2219C42.876 12.8331 42.786 12.4571 42.6414 12.0939C42.3714 11.4094 41.9022 10.9595 41.1406 10.8856C40.5107 10.8245 39.7426 11.3258 39.4052 11.9782C39.1834 12.4056 39.1159 12.8652 39.1127 13.3312C39.1063 15.78 39.1127 18.2288 39.1256 20.6777C39.1256 20.9316 39.0742 20.9991 38.8203 20.9862C37.3291 20.8994 35.8348 20.9059 34.3404 20.9862C34.019 21.0023 33.9997 20.8577 34.003 20.6134C34.0062 17.2712 34.003 13.9322 34.0062 10.5899V10.5867Z" fill="white"></path>
  <path d="M29.9098 6.59534C30.6297 6.59534 31.3496 6.60177 32.0727 6.59534C32.288 6.59534 32.3715 6.62104 32.3265 6.88135C32.2687 7.21878 32.288 7.5723 32.288 7.91617C32.288 12.0168 32.288 16.1143 32.288 20.215C32.288 20.9573 32.2944 20.9445 31.5392 20.9413C30.2987 20.9381 29.0582 20.9413 27.8177 20.9605C27.5221 20.9638 27.3903 20.9059 27.4642 20.5813C27.5092 20.3885 27.5028 20.1861 27.5092 19.9868C27.5124 19.8872 27.5542 19.7554 27.4192 19.7104C27.2971 19.6687 27.2264 19.7683 27.1525 19.8454C26.4294 20.6328 25.5039 21.0795 24.4787 21.2562C22.3512 21.6226 20.4519 21.0377 18.9479 19.5176C16.7819 17.3259 16.1327 14.6778 16.9137 11.6955C17.4214 9.75762 18.4852 8.19576 20.2334 7.18987C22.1006 6.11328 24.0545 5.94295 26.0406 6.90384C26.4423 7.09667 26.7701 7.38911 27.1075 7.66871C27.1911 7.73941 27.2553 7.88723 27.4032 7.80368C27.5349 7.72976 27.4899 7.59158 27.4867 7.47589C27.4803 7.2895 27.4642 7.10309 27.4385 6.91991C27.4032 6.67245 27.4996 6.59213 27.747 6.59534C28.4669 6.6082 29.1868 6.59854 29.9098 6.59854V6.59534ZM24.5558 10.8503C22.8429 10.8406 21.49 12.1518 21.4964 13.8165C21.5028 15.4105 22.9554 16.8181 24.5815 16.8085C26.1466 16.7988 27.5028 15.4394 27.5156 13.8647C27.5285 12.2 26.2141 10.8599 24.5526 10.8503H24.5558Z" fill="white"></path>
  <path d="M2.7947 6.59853C3.60777 6.59853 4.42405 6.60819 5.23711 6.59212C5.50706 6.5889 5.65168 6.6821 5.74487 6.93277C6.69934 9.49408 7.84342 11.9847 8.6597 14.6006C8.69184 14.7067 8.71433 14.816 8.84288 14.8352C9.00035 14.8609 9.05177 14.726 9.09676 14.6231C9.39564 13.9129 9.68808 13.2027 9.9741 12.486C10.7293 10.5867 11.4813 8.68422 12.2237 6.7785C12.288 6.6146 12.3844 6.59533 12.5258 6.59533C14.1391 6.59533 15.7555 6.59854 17.3688 6.59212C17.6195 6.59212 17.6677 6.65639 17.5681 6.89099C16.8771 8.50105 16.1894 10.1143 15.5113 11.7308C14.2355 14.7678 12.9628 17.8079 11.6966 20.8481C10.98 22.5642 10.2762 24.2835 9.57239 26.006C9.46634 26.2631 9.31851 26.3724 9.03249 26.3692C7.48349 26.3596 5.9377 26.3563 4.38869 26.3692C4.05447 26.3692 4.05447 26.2856 4.17659 26.0093C4.81933 24.5502 5.43636 23.0784 6.07267 21.6194C6.2205 21.2819 6.23336 20.9927 6.07589 20.636C5.25318 18.7945 4.45618 16.9402 3.6624 15.0859C2.53439 12.4507 1.41281 9.80902 0.291235 7.17058C0.0469938 6.59533 0.0502058 6.59212 0.673663 6.59212C1.38068 6.59212 2.08769 6.59212 2.7947 6.59212V6.59853Z" fill="white"></path>
  <path d="M64.4052 13.9161C64.4566 18.3992 60.7962 21.3462 56.7308 21.3494C52.4116 21.3494 49.0019 18.126 49.034 13.8775C49.0694 9.69331 52.0614 6.12932 56.9847 6.30929C61.1175 6.46033 64.4084 9.02486 64.4052 13.9161ZM59.6457 13.8679C59.6939 12.2643 58.4598 10.8952 56.7533 10.8984C54.9697 10.9017 53.8932 12.1261 53.8449 13.8004C53.7967 15.4265 55.1883 16.7795 56.853 16.7666C58.2606 16.757 59.7132 15.3205 59.6457 13.8679Z" fill="white"></path>
  <path d="M80.7429 13.9418C80.8168 18.5213 77.0761 21.3365 73.075 21.3494C68.8201 21.3622 65.375 18.1903 65.3911 13.9193C65.4072 9.55509 68.4923 6.34139 72.8854 6.30282C77.4457 6.26426 80.8072 9.15338 80.7397 13.9386L80.7429 13.9418ZM72.9979 16.757C74.4473 16.8855 75.8774 15.5872 76.022 14.0093C76.1634 12.4892 74.8747 10.9659 73.2807 10.9016C71.6771 10.8373 70.3273 11.795 70.1923 13.7104C70.0767 15.3397 71.5678 16.7666 72.9947 16.757H72.9979Z" fill="white"></path>
  <path d="M86.3442 13.2637C85.4508 13.2637 84.5574 13.2605 83.6639 13.2637C83.4165 13.2637 83.3683 13.2091 83.4711 12.9648C84.8305 9.74791 86.1771 6.52458 87.53 3.30445C87.9317 2.34998 88.3463 1.39874 88.7384 0.441057C88.8123 0.26109 88.8958 0.20003 89.0822 0.20003C90.9108 0.206457 92.7362 0.206457 94.5648 0.20003C94.854 0.20003 94.8283 0.299658 94.7383 0.505335C93.6264 2.9606 92.6141 5.46085 91.5953 7.95468C90.9237 9.60331 90.2167 11.2359 89.5386 12.8813C89.4197 13.1673 89.2718 13.2798 88.9473 13.2701C88.0796 13.2444 87.2119 13.2605 86.3474 13.2605L86.3442 13.2637Z" fill="white"></path>
  <path d="M84.898 14.5781C86.6623 14.6103 88.3077 15.8636 88.2627 17.9139C88.2241 19.7297 86.839 21.2594 84.8562 21.2401C83.0726 21.2208 81.5782 19.8454 81.575 17.8882C81.575 15.9439 83.1979 14.5653 84.898 14.5781Z" fill="white"></path>
</svg>
