<?xml version="1.0" encoding="UTF-8"?>
<svg xmlns="http://www.w3.org/2000/svg" width="145" height="27" viewBox="0 0 145 27" fill="none">
  <path d="M144.569 19.8534C144.392 20.3072 144.43 20.797 144.333 21.2646C143.791 23.8767 142.23 25.5093 139.605 26.1623C138.42 26.4584 137.228 26.3339 136.038 26.3671C134.842 26.3975 133.713 26.1097 132.643 25.6034C131.057 24.8562 130.083 23.6055 129.665 21.9232C129.568 21.5302 129.582 21.5192 130.014 21.5192C131.417 21.5192 132.82 21.5247 134.223 21.5192C134.549 21.5192 134.762 21.6077 134.931 21.9259C135.172 22.3797 135.625 22.6066 136.124 22.7284C136.566 22.8363 137.017 22.8308 137.463 22.7726C138.39 22.6509 138.968 22.1086 139.198 21.201C139.386 20.4511 139.281 19.6901 139.333 18.8489C139.167 18.9956 139.062 19.0786 138.971 19.1699C137.817 20.357 136.4 20.8136 134.77 20.6226C132.626 20.3681 131.099 19.2336 130.138 17.3326C129.48 16.0237 129.317 14.6236 129.344 13.1792C129.377 11.4553 129.77 9.83659 130.706 8.37557C131.58 7.01141 132.798 6.08721 134.436 5.86861C136.309 5.6168 137.953 6.06783 139.123 7.67273C139.201 7.78065 139.272 7.97434 139.405 7.93837C139.582 7.89133 139.497 7.68103 139.499 7.54821C139.51 7.20786 139.486 6.86475 139.469 6.52163C139.461 6.35007 139.494 6.23386 139.707 6.23662C141.328 6.26706 142.95 6.19512 144.569 6.29473V19.8534ZM134.555 13.2982C134.566 14.0619 134.615 14.7786 134.967 15.4316C135.307 16.0597 135.747 16.6104 136.497 16.757C137.601 16.9756 138.467 16.6021 138.987 15.6115C139.795 14.073 139.798 12.4791 138.957 10.9656C138.085 9.39939 136.005 9.43535 135.078 10.9711C134.632 11.7044 134.571 12.5179 134.557 13.301L134.555 13.2982Z" fill="white"></path>
  <path d="M15.1221 9.9002C15.5344 10.0939 15.9357 10.2322 16.3009 10.4508C17.6872 11.2865 18.4149 12.5428 18.6335 14.1006C18.8577 15.6944 18.5976 17.2053 17.7536 18.6054C16.8073 20.1743 15.3518 20.9215 13.5919 21.2231C12.4408 21.4223 11.2814 21.4306 10.1193 21.4278C7.09486 21.4195 4.06768 21.4195 1.04327 21.4334C0.730594 21.4334 0.672485 21.3476 0.672485 21.0543C0.680787 14.2445 0.680787 7.43197 0.672485 0.622211C0.672485 0.281861 0.780401 0.207153 1.10415 0.20992C4.82033 0.254193 8.5365 0.121376 12.2499 0.281866C14.0706 0.362111 15.7088 0.995768 16.7824 2.57023C17.8062 4.06998 17.9778 5.73023 17.4409 7.44305C17.1476 8.38385 16.5029 9.07562 15.623 9.54326C15.4542 9.63457 15.2688 9.70375 15.1249 9.89468L15.1221 9.9002ZM8.84918 16.7708C8.84918 16.7708 8.84918 16.7708 8.84918 16.7681C9.52711 16.7681 10.2078 16.793 10.883 16.7625C11.7684 16.721 12.4464 16.3281 12.784 15.4786C12.9638 15.0248 12.9832 14.5489 12.9057 14.0646C12.7535 13.1183 12.0175 12.4155 11.049 12.3961C9.60182 12.3684 8.15188 12.3906 6.70193 12.3823C6.51377 12.3823 6.47503 12.4514 6.47503 12.623C6.48057 13.9125 6.48334 15.1991 6.47503 16.4886C6.47503 16.7183 6.55528 16.7764 6.77388 16.7736C7.46288 16.7625 8.15465 16.7681 8.84365 16.7681L8.84918 16.7708ZM8.61398 8.46963C8.61398 8.46963 8.61398 8.489 8.61398 8.50006C9.18676 8.50006 9.76232 8.49453 10.3351 8.50006C11.132 8.51113 11.8293 8.0269 12.0673 7.29363C12.4104 6.23384 11.987 4.73962 10.2466 4.72855C9.07608 4.72025 7.90284 4.72855 6.73237 4.71748C6.54144 4.71748 6.47503 4.76452 6.4778 4.96375C6.4861 6.04567 6.4861 7.1276 6.4778 8.20953C6.4778 8.41706 6.53868 8.4807 6.75451 8.47516C7.37433 8.46133 7.99416 8.46963 8.61398 8.46963Z" fill="white"></path>
  <path d="M73.8991 8.57479C74.0735 8.33129 74.209 8.11822 74.364 7.92176C75.7973 6.09826 77.69 5.56421 79.9175 5.98481C81.9236 6.36389 83.1301 7.86365 83.5258 9.83934C83.7444 10.924 83.8218 12.0281 83.8163 13.1405C83.7997 15.7885 83.8052 18.4339 83.8163 21.082C83.8163 21.367 83.7444 21.4389 83.4566 21.4361C81.9153 21.4223 80.3741 21.4223 78.83 21.4361C78.5533 21.4361 78.4786 21.3559 78.4786 21.0903C78.4565 18.4892 78.4316 15.8882 78.4869 13.2871C78.498 12.7614 78.4759 12.2412 78.3513 11.7237C78.13 10.8161 77.6457 10.3513 76.7769 10.2406C76.0657 10.1493 75.2965 10.5837 74.9202 11.3003C74.6158 11.8814 74.5217 12.5151 74.5217 13.1571C74.5217 15.7941 74.5273 18.4283 74.5439 21.0654C74.5439 21.3504 74.4719 21.4389 74.1814 21.4361C72.6401 21.4251 71.0989 21.4223 69.5548 21.4361C69.2864 21.4361 69.2394 21.3559 69.2394 21.1096C69.2505 18.3481 69.2449 15.5865 69.2477 12.825C69.2477 12.3214 69.2089 11.8233 69.0291 11.3446C68.7634 10.6307 68.21 10.2848 67.474 10.2378C66.8071 10.1963 66.2648 10.4758 65.8829 11.0264C65.4651 11.6296 65.3157 12.3214 65.3129 13.0381C65.3074 15.6862 65.3129 18.3315 65.3129 20.9796C65.3129 21.4306 65.3184 21.4306 64.8508 21.4306C63.3428 21.4306 61.8347 21.4306 60.3294 21.4306C59.8867 21.4306 59.8922 21.4306 59.8839 20.9851C59.8175 16.912 59.8728 12.8388 59.8562 8.76295C59.8535 8.06565 59.8756 7.36834 59.8396 6.67657C59.823 6.35006 59.9393 6.29749 60.2243 6.30026C61.605 6.31409 62.9858 6.30856 64.3666 6.31133C64.9504 6.31133 64.9532 6.31132 64.9421 6.8924C64.9338 7.3379 64.9145 7.78064 64.9034 8.22614C64.9034 8.31468 64.9172 8.40599 64.9366 8.49454C64.9477 8.54712 64.967 8.61352 65.0334 8.62182C65.1026 8.63013 65.1247 8.56372 65.1552 8.51944C65.3184 8.27041 65.4706 8.01584 65.645 7.7751C67.023 5.87136 69.7762 5.34285 71.846 6.33346C72.5709 6.67934 73.1188 7.22723 73.5256 7.91069C73.6473 8.11546 73.758 8.32852 73.8964 8.57479H73.8991Z" fill="white"></path>
  <path d="M90.4417 19.4245C90.4417 19.9918 90.4307 20.559 90.4473 21.1262C90.4528 21.3614 90.3919 21.4361 90.1457 21.4334C88.6736 21.4223 87.2015 21.4223 85.7266 21.4334C85.461 21.4334 85.4001 21.3448 85.4001 21.0958C85.4001 14.7398 85.3918 8.38388 85.3863 2.03068C85.3863 1.52984 85.4001 1.02624 85.3863 0.525397C85.3808 0.29573 85.4389 0.209949 85.6934 0.212716C87.1877 0.229319 88.6846 0.226551 90.1816 0.229318C90.5358 0.229318 90.7129 0.399031 90.7129 0.738458C90.7129 3.04343 90.7129 5.3484 90.7129 7.65337V7.96328C90.843 7.81662 90.9204 7.73085 90.9979 7.63954C91.983 6.49397 93.2365 5.89351 94.7528 5.81604C97.8547 5.65555 99.645 7.49288 100.453 9.63736C101.568 12.5898 101.546 15.5672 100.287 18.4671C99.0086 21.4168 96.0174 22.3299 93.4717 21.6963C92.4368 21.4389 91.5901 20.8661 90.9536 20.0028C90.8042 19.8008 90.6603 19.5988 90.5137 19.3968C90.4888 19.4051 90.4666 19.4134 90.4417 19.4217V19.4245ZM95.7628 13.8488C95.7628 12.7392 95.6743 11.768 95.1873 10.877C94.8718 10.3015 94.4208 9.88363 93.7705 9.71207C92.6609 9.41599 91.5071 9.99985 91.0007 11.1565C90.5275 12.2412 90.3449 13.3867 90.5247 14.5655C90.6548 15.415 90.854 16.2424 91.4102 16.9397C92.4894 18.2872 94.4042 18.1074 95.2039 16.5827C95.677 15.6834 95.7517 14.7122 95.7628 13.8461V13.8488Z" fill="white"></path>
  <path d="M111.507 15.2462C110.676 15.2268 109.041 15.3071 107.409 15.2185C107.226 15.2075 107.195 15.2905 107.215 15.4454C107.295 16.1372 107.478 16.7902 107.937 17.3353C108.377 17.8583 108.919 18.1876 109.639 18.1516C109.891 18.1378 110.145 18.1544 110.397 18.1461C111.089 18.1267 111.772 17.6369 111.994 16.9894C112.054 16.8124 112.146 16.7598 112.317 16.7598C113.881 16.7598 115.447 16.7598 117.01 16.7598C117.174 16.7598 117.232 16.793 117.174 16.9784C116.374 19.596 114.589 21.1401 111.919 21.6935C109.965 22.0975 108.051 21.9619 106.227 21.1179C103.784 19.9862 102.464 18.0022 102.052 15.4233C101.747 13.5334 101.91 11.6739 102.79 9.92235C103.944 7.63122 105.829 6.3556 108.347 5.96267C110.624 5.60849 112.721 6.05122 114.542 7.49009C115.851 8.52221 116.576 9.93341 117.016 11.5051C117.326 12.6119 117.398 13.7492 117.503 14.8837C117.531 15.177 117.409 15.2517 117.135 15.2517C115.524 15.2434 113.914 15.249 111.501 15.249L111.507 15.2462ZM109.705 12.3076V12.2827C110.452 12.2827 111.199 12.2827 111.947 12.2827C112.16 12.2827 112.259 12.2439 112.201 11.9893C112.099 11.5328 111.994 11.0817 111.781 10.6584C111.133 9.37446 109.429 8.97878 108.283 9.85317C107.541 10.4177 107.312 11.2312 107.207 12.0973C107.182 12.302 107.312 12.3076 107.467 12.3076C108.214 12.302 108.961 12.3076 109.705 12.3076Z" fill="white"></path>
  <path d="M34.3102 21.9038C32.0661 21.8263 30.0213 21.2507 28.4413 19.5517C27.3649 18.3951 26.7783 17.0143 26.5209 15.4648C26.1584 13.2622 26.4683 11.1841 27.6554 9.28591C28.8591 7.3628 30.6798 6.36111 32.9129 6.02076C34.3628 5.7994 35.7768 5.90731 37.1658 6.35835C39.2993 7.05012 40.8046 8.43919 41.5876 10.5145C42.5395 13.0381 42.5063 15.5672 41.2777 18.0077C40.1571 20.2324 38.2561 21.3974 35.8211 21.7737C35.4696 21.8291 35.1155 21.8678 34.7613 21.9038C34.6146 21.9176 34.4624 21.9038 34.313 21.9038H34.3102ZM31.6981 13.8958C31.7175 14.2224 31.723 14.5295 31.7562 14.8367C31.8503 15.7 31.9721 16.5522 32.4397 17.3159C33.0983 18.3923 34.4431 18.6718 35.4503 17.9247C35.9068 17.5871 36.1974 17.1195 36.3745 16.5937C36.9085 15.0082 36.9279 13.3978 36.546 11.7763C36.4769 11.4885 36.38 11.209 36.2583 10.9378C35.8598 10.0552 35.1929 9.54048 34.2023 9.54325C33.1591 9.54602 32.5365 10.152 32.1685 11.0624C31.7977 11.9755 31.7535 12.9467 31.6981 13.8958Z" fill="white"></path>
  <path d="M42.9282 14.0038C42.8978 12.6036 43.1551 11.364 43.6864 10.1824C44.5553 8.24547 46.0384 6.97539 48.0584 6.3362C49.8542 5.76895 51.6749 5.74957 53.4874 6.28915C55.6761 6.93942 57.2285 8.32019 58.0392 10.4315C58.9828 12.8886 58.9717 15.3735 57.8511 17.778C56.7442 20.1522 54.7713 21.3918 52.1952 21.7875C50.5875 22.0338 49.0296 21.8871 47.5299 21.2867C45.1087 20.3182 43.7196 18.4892 43.1468 16.0016C42.9863 15.3098 42.884 14.6125 42.9282 14.0038ZM53.3103 13.918C53.3214 13.4586 53.2715 13.0076 53.2134 12.5538C53.1111 11.768 52.9257 11.0098 52.4304 10.3595C51.5394 9.19458 49.7159 9.2859 48.9549 10.5338C48.6173 11.09 48.4568 11.7015 48.3517 12.3352C48.0944 13.882 48.1718 15.4011 48.7363 16.8732C48.9605 17.4543 49.334 17.9247 49.9372 18.1682C50.9887 18.5943 52.1287 18.1405 52.6877 17.0697C53.2051 16.0791 53.2715 14.9999 53.3103 13.9152V13.918Z" fill="white"></path>
  <path d="M19.739 10.852C19.739 7.42918 19.7445 4.00632 19.7307 0.583448C19.7307 0.27907 19.8082 0.204358 20.1153 0.209892C21.6898 0.229261 23.267 0.232031 24.8442 0.220963C25.1708 0.220963 25.2704 0.309509 25.2704 0.644324C25.2593 7.45409 25.2593 14.2666 25.2704 21.0764C25.2704 21.3835 25.1874 21.4527 24.8885 21.4499C23.2891 21.4333 21.6898 21.4306 20.0932 21.4444C19.8082 21.4444 19.7335 21.3697 19.7335 21.0847C19.7445 17.6729 19.7418 14.2638 19.7418 10.852H19.739Z" fill="white"></path>
  <path d="M123.578 8.87364C123.813 8.84044 123.857 8.66888 123.932 8.53883C124.557 7.49011 125.363 6.64338 126.55 6.21725C127.247 5.96822 127.966 5.95162 128.694 6.02079C128.896 6.04016 128.96 6.15638 128.96 6.3473C128.954 7.70594 128.951 9.0618 128.954 10.4204C128.954 10.6833 128.866 10.7387 128.597 10.6888C125.706 10.1631 123.938 11.8123 123.868 14.4465C123.81 16.6463 123.852 18.8489 123.863 21.0515C123.863 21.3559 123.796 21.4527 123.473 21.45C121.931 21.4334 120.39 21.4417 118.849 21.4555C118.553 21.4583 118.467 21.3808 118.47 21.0737C118.481 16.259 118.481 11.4443 118.475 6.63231C118.475 6.41095 118.506 6.2975 118.766 6.30027C120.26 6.31964 121.757 6.33347 123.251 6.33347C123.525 6.33347 123.594 6.42755 123.586 6.68766C123.57 7.41263 123.581 8.1376 123.581 8.87364H123.578Z" fill="white"></path>
</svg>
