<?xml version="1.0" encoding="UTF-8"?>
<svg xmlns="http://www.w3.org/2000/svg" width="132" height="27" viewBox="0 0 132 27" fill="none">
  <rect width="132" height="27" fill="#E5E5E5"></rect>
  <g id="Desktop Homepage - Light" clip-path="url(#clip0_2_29)">
    <rect width="1512" height="8673" transform="translate(-320 -6791)" fill="white"></rect>
    <g id="Frame 34450">
      <g id="CTA Section" clip-path="url(#clip1_2_29)">
        <g id="CTA Desktop" clip-path="url(#clip2_2_29)">
          <rect width="1512" height="777" transform="translate(-320 -547.009)" fill="url(#paint0_linear_2_29)"></rect>
          <g id="Frame 34621">
            <g id="Frame 34634">
              <g id="Frame 34635">
                <g id="Vector">
                  <path d="M131.785 24.5043C131.666 24.2065 131.725 23.8975 131.725 23.596C131.725 16.3333 131.725 9.07071 131.729 1.80808C131.729 1.61078 131.692 1.40604 131.785 1.21992V24.508V24.5043Z" fill="white"></path>
                  <path d="M65.7551 0.211119C69.9615 0.211119 74.168 0.218564 78.3744 0.199951C78.8323 0.199951 78.903 0.345129 78.903 0.747162C78.8881 8.9851 78.8844 17.223 78.877 25.4647C78.877 26.3581 78.8807 26.3581 77.9836 26.3581C69.7419 26.3581 61.5002 26.3544 53.2549 26.3693C52.8044 26.3693 52.6965 26.2576 52.7002 25.8183C52.7077 17.5953 52.6965 9.37224 52.6853 1.14919C52.6853 0.214841 52.6816 0.218564 53.5973 0.218564C57.6474 0.218564 61.7013 0.218564 65.7514 0.218564L65.7551 0.211119ZM58.5595 13.3181C58.5595 13.3181 58.5483 13.3181 58.5446 13.3181C58.5446 16.1956 58.5483 19.0768 58.5371 21.9544C58.5371 22.2968 58.6339 22.4159 58.9838 22.4085C59.8958 22.3862 60.8078 22.3899 61.7199 22.3862C62.3453 22.3862 62.3341 22.3862 62.3341 21.7459C62.3266 19.7283 62.3266 17.7144 62.3155 15.6968C62.3155 15.3767 62.3899 15.2427 62.7585 15.2538C63.7003 15.2836 64.6458 15.2575 65.5876 15.265C66.4512 15.2724 67.3185 15.2352 68.1822 15.3469C69.2729 15.4846 69.6153 15.8383 69.7158 16.9401C69.794 17.7851 69.7903 18.6301 69.7977 19.4789C69.8052 20.309 69.8387 21.1391 70.0695 21.9469C70.1365 22.1777 70.2296 22.3006 70.5087 22.2968C71.484 22.2782 72.4556 22.2819 73.4309 22.2968C73.7101 22.2968 73.8218 22.2298 73.7846 21.932C73.5686 20.2197 73.5314 18.4961 73.4756 16.7726C73.4235 15.1608 72.8093 14.4833 71.3463 14.1482C71.2533 14.1259 71.1416 14.111 71.1341 14.0105C71.1267 13.8765 71.2607 13.8393 71.3612 13.8244C71.6069 13.7871 71.8414 13.7574 72.0722 13.642C72.9172 13.2064 73.3825 12.488 73.5873 11.5946C73.9632 9.94551 73.9074 8.29271 73.5389 6.65108C73.2373 5.30353 72.3663 4.5218 71.0076 4.29472C70.505 4.20911 69.995 4.19049 69.4813 4.19421C65.9561 4.20911 62.4309 4.22027 58.9057 4.21283C58.5371 4.21283 58.5557 4.39895 58.5557 4.64464C58.5557 7.54076 58.5557 10.4332 58.5557 13.3293L58.5595 13.3181Z" fill="white"></path>
                  <path d="M26.3731 13.3181C26.3731 17.506 26.3693 21.6938 26.3805 25.8853C26.3805 26.2725 26.2726 26.3656 25.8929 26.3656C17.5098 26.3544 9.13037 26.3544 0.747251 26.3656C0.326607 26.3656 0.203762 26.265 0.207484 25.8258C0.218652 17.465 0.207484 9.10051 0.207484 0.739727C0.207484 0.252077 0.110702 0.214852 0.884986 0.218575C9.2346 0.22602 17.5879 0.222297 25.9375 0.21113C26.3061 0.21113 26.4066 0.296748 26.4066 0.665277C26.3954 4.88289 26.3991 9.10423 26.3991 13.3256C26.3917 13.3256 26.3842 13.3256 26.3768 13.3256L26.3731 13.3181ZM13.6979 9.26802C14.0962 11.0362 14.4759 12.6965 14.8444 14.3604C15.3768 16.7615 15.8942 19.1662 16.4302 21.5635C16.5605 22.1554 16.8174 22.375 17.4316 22.3862C18.4664 22.4048 19.505 22.4048 20.5399 22.3862C21.1764 22.3713 21.4221 22.1293 21.5338 21.5114C21.7907 20.0894 22.0512 18.6674 22.3118 17.2454C23.0935 13.0129 23.8753 8.77665 24.6682 4.54414C24.724 4.25006 24.6607 4.16817 24.3555 4.17561C23.5216 4.19795 22.6841 4.22028 21.8539 4.17561C21.3514 4.14956 21.1504 4.29846 21.0648 4.79727C20.4319 8.49374 19.7805 12.1902 19.1216 15.8829C18.9913 16.62 18.9206 17.3571 18.9131 18.1872C18.6563 17.9787 18.6153 17.7703 18.5707 17.5692C18.4255 16.9252 18.284 16.2775 18.1426 15.6335C17.6177 13.2325 17.0891 10.8278 16.5642 8.42673C16.3297 7.36209 16.1101 6.29 15.8756 5.22536C15.6969 4.41758 15.4698 4.22401 14.6434 4.20539C13.9622 4.18678 13.281 4.18306 12.6035 4.20539C11.8329 4.22773 11.4867 4.5032 11.2894 5.25514C11.1703 5.71674 11.0959 6.1895 10.9953 6.65481C10.2992 9.91574 9.52867 13.1618 8.88096 16.4339C8.773 16.9811 8.60921 17.5208 8.47148 18.0643C8.28907 17.4873 8.22207 16.9178 8.12528 16.352C7.64136 13.5787 7.15371 10.8091 6.66606 8.03959C6.46876 6.91911 6.26402 5.79863 6.07045 4.67815C6.01089 4.32079 5.86199 4.16817 5.45624 4.18678C4.52933 4.22401 3.5987 4.22028 2.67179 4.18678C2.22881 4.17189 2.19159 4.34313 2.26976 4.70421C2.56384 6.07038 2.83559 7.44399 3.1185 8.81387C3.69921 11.6132 4.2762 14.4125 4.85691 17.2119C5.15471 18.6562 5.44135 20.1043 5.76149 21.5449C5.91783 22.2484 6.10768 22.3825 6.81868 22.3973C7.70092 22.416 8.58315 22.4048 9.46167 22.4085C10.6566 22.4085 10.7794 22.3155 11.081 21.1615C11.0996 21.087 11.1219 21.0126 11.1405 20.9381C11.6989 18.3994 12.261 15.8643 12.8194 13.3256C13.1097 12.0115 13.3926 10.6975 13.7016 9.27547L13.6979 9.26802Z" fill="white"></path>
                  <path d="M131.528 13.2735C131.528 17.506 131.528 21.7385 131.535 25.9747C131.535 26.2539 131.468 26.3842 131.178 26.3544C131.1 26.3469 131.022 26.3544 130.947 26.3544C122.613 26.3544 114.282 26.3544 105.947 26.3656C105.519 26.3656 105.415 26.2502 105.415 25.837C105.418 17.6176 105.407 9.39459 105.4 1.17527C105.4 0.211133 105.396 0.214856 106.371 0.214856C114.364 0.214856 122.356 0.214856 130.352 0.218579C131.532 0.218579 131.513 0.218578 131.509 1.35767C131.502 5.3296 131.509 9.30153 131.509 13.2735C131.517 13.2735 131.521 13.2735 131.528 13.2735ZM111.032 13.3256C111.032 16.2217 111.039 19.1141 111.024 22.0102C111.024 22.3564 111.14 22.416 111.449 22.416C113.924 22.4011 116.396 22.4048 118.871 22.3974C119.999 22.3974 121.127 22.4197 122.252 22.3043C124.332 22.0847 125.877 20.8488 126.499 18.8535C126.826 17.8038 126.953 16.7205 127.013 15.6261C127.15 13.1171 127.191 10.6081 126.585 8.14382C126.093 6.14483 124.887 4.84195 122.791 4.43992C121.984 4.28357 121.176 4.19051 120.353 4.19423C117.386 4.2054 114.416 4.22029 111.449 4.21657C111.103 4.21657 111.039 4.32824 111.039 4.64093C111.05 7.53705 111.047 10.4294 111.047 13.3256H111.032Z" fill="white"></path>
                  <path d="M91.7028 22.3043C89.246 22.3043 86.7854 22.2968 84.3285 22.3117C83.9898 22.3117 83.8744 22.2298 83.8893 21.8762C83.919 21.1391 83.9079 20.3983 83.8893 19.6576C83.8818 19.3895 83.9674 19.3225 84.2317 19.33C84.8645 19.3523 85.4974 19.33 86.1339 19.3411C86.3759 19.3449 86.4541 19.263 86.4541 19.021C86.4392 15.3729 86.4317 11.7211 86.4168 8.07307C86.4168 7.24295 86.3982 7.24295 85.5756 7.23178C85.1437 7.22434 84.7082 7.202 84.2764 7.22062C83.9674 7.23178 83.8781 7.12011 83.8855 6.82231C83.9041 6.12992 83.9116 5.43753 83.8855 4.74514C83.8744 4.40267 83.9711 4.29472 84.3248 4.29844C86.3201 4.30588 88.3153 4.29099 90.3106 4.28727C93.1546 4.28727 96.0023 4.28727 98.8463 4.29472C99.468 4.29472 99.4494 4.22771 99.4419 4.8866C99.4196 6.4575 99.4271 8.0284 99.4531 9.59931C99.4606 9.97156 99.3824 10.1205 98.9766 10.1056C98.1577 10.0758 97.3387 10.0832 96.5198 10.1056C96.2034 10.113 96.1326 10.0051 96.1401 9.7147C96.1587 9.00743 96.1401 8.29642 96.1512 7.58915C96.155 7.33601 96.1289 7.20945 95.8088 7.21689C93.9214 7.26156 92.0378 7.26156 90.1505 7.19828C89.8974 7.19084 89.8304 7.26529 89.8341 7.50353C89.8416 8.78035 89.8453 10.0609 89.8341 11.3377C89.8341 11.602 89.9234 11.6802 90.184 11.6765C91.5911 11.6579 92.9983 11.6616 94.4054 11.6318C94.6957 11.6244 94.7962 11.6914 94.7888 11.978C94.7739 12.7151 94.7665 13.4558 94.7776 14.1966C94.7813 14.5056 94.625 14.5428 94.3719 14.5391C92.9945 14.5316 91.6209 14.5465 90.2436 14.5279C89.916 14.5242 89.8304 14.6173 89.8341 14.9374C89.8527 16.2775 89.849 17.6176 89.8341 18.9577C89.8341 19.2406 89.8825 19.356 90.2064 19.356C92.0937 19.3374 93.981 19.3337 95.8646 19.356C96.248 19.3598 96.3374 19.2369 96.3225 18.8795C96.289 18.1276 96.3113 17.3719 96.2815 16.6163C96.2704 16.3333 96.382 16.2701 96.6277 16.2701C97.5099 16.2775 98.3922 16.285 99.2707 16.2701C99.5127 16.2701 99.5573 16.3706 99.5536 16.5716C99.5015 18.3733 99.5089 20.175 99.5536 21.973C99.5611 22.2968 99.4159 22.3452 99.1292 22.3452C96.6538 22.334 94.182 22.3378 91.7065 22.3378V22.3043H91.7028Z" fill="white"></path>
                  <path d="M39.5376 4.28354C41.4844 4.28354 43.435 4.28726 45.3819 4.27609C45.6611 4.27609 45.7765 4.33938 45.7579 4.63345C45.7058 5.37051 45.702 6.11129 45.7467 6.84835C45.7653 7.1536 45.6499 7.24294 45.3447 7.23922C44.1237 7.22061 42.9027 7.23922 41.6817 7.22433C41.3765 7.22433 41.2611 7.27272 41.2574 7.62636C41.2387 11.3973 41.2313 15.1682 41.2611 18.9428C41.2611 19.289 41.3728 19.3449 41.678 19.3411C42.8841 19.3262 44.0902 19.3486 45.2963 19.3262C45.6388 19.3188 45.7765 19.3932 45.743 19.7543C45.676 20.4765 45.6983 21.1987 45.7467 21.9208C45.7691 22.2186 45.6648 22.3303 45.3559 22.3303C41.477 22.3266 37.5944 22.3303 33.7155 22.3378C33.4326 22.3378 33.3358 22.241 33.3433 21.9618C33.3619 21.2247 33.3731 20.4839 33.3545 19.7469C33.347 19.3932 33.4773 19.3151 33.816 19.3225C35.037 19.3449 36.258 19.3225 37.479 19.3374C37.7656 19.3374 37.8438 19.2592 37.8438 18.9726C37.8252 15.5404 37.8215 12.1083 37.8103 8.67611C37.8103 8.33736 37.7731 7.99117 37.8252 7.66358C37.8885 7.27272 37.7247 7.23177 37.3971 7.2355C36.2059 7.25039 35.0147 7.22805 33.8272 7.25411C33.4401 7.26155 33.3172 7.15732 33.3358 6.76646C33.3656 6.05918 33.347 5.3519 33.3358 4.64462C33.3321 4.3766 33.3991 4.27609 33.7006 4.27609C35.6475 4.29098 37.5981 4.28354 39.545 4.28354H39.5376Z" fill="white"></path>
                  <path d="M65.543 12.3838C64.5863 12.3838 63.6296 12.3726 62.673 12.3912C62.3752 12.3949 62.3081 12.2795 62.3081 12.0078C62.3156 10.6081 62.3081 9.21216 62.297 7.8125C62.297 7.55937 62.3751 7.44397 62.6394 7.44769C64.6012 7.46258 66.5593 7.38441 68.5173 7.49236C69.299 7.53331 69.7011 7.92045 69.7792 8.69101C69.8649 9.5323 69.8537 10.381 69.7755 11.226C69.6936 12.0711 69.3139 12.4359 68.4577 12.4619C67.4862 12.4954 66.5146 12.4694 65.543 12.4694C65.543 12.4433 65.543 12.4135 65.543 12.3875V12.3838Z" fill="white"></path>
                  <path d="M114.786 7.68966C114.786 7.48492 114.782 7.31368 115.058 7.32113C117.098 7.38069 119.138 7.23923 121.174 7.39558C122.056 7.46259 122.615 7.98746 122.883 8.80269C123.106 9.47647 123.233 10.1651 123.247 10.8836C123.277 12.4992 123.296 14.1147 123.247 15.7303C123.229 16.352 123.128 16.9513 122.979 17.5506C122.756 18.4664 122.108 18.887 121.241 19.0545C120.109 19.2741 118.959 19.196 117.82 19.2034C116.923 19.2071 116.026 19.1848 115.129 19.2034C114.853 19.2071 114.794 19.1252 114.794 18.8647C114.805 17.0034 114.782 9.55092 114.779 7.68966H114.786Z" fill="white"></path>
                </g>
              </g>
            </g>
          </g>
        </g>
      </g>
    </g>
  </g>
  <defs>
    <linearGradient id="paint0_linear_2_29" x1="-3.26062e-05" y1="388.5" x2="1491.02" y2="807.574" gradientUnits="userSpaceOnUse">
      <stop offset="0.621448" stop-color="#A053CF"></stop>
      <stop offset="1" stop-color="#EF59A5"></stop>
    </linearGradient>
    <clipPath id="clip0_2_29">
      <rect width="1512" height="8673" fill="white" transform="translate(-320 -6791)"></rect>
    </clipPath>
    <clipPath id="clip1_2_29">
      <rect width="1512" height="777" fill="white" transform="translate(-320 -547.009)"></rect>
    </clipPath>
    <clipPath id="clip2_2_29">
      <rect width="1512" height="777" fill="white" transform="translate(-320 -547.009)"></rect>
    </clipPath>
  </defs>
</svg>
