<?xml version="1.0" encoding="UTF-8"?>
<svg xmlns="http://www.w3.org/2000/svg" width="116" height="27" viewBox="0 0 116 27" fill="none">
  <path d="M0.75931 0.922524C4.11168 0.915102 7.46404 0.910164 10.8164 0.902742C11.1455 0.902742 11.4745 0.917591 11.8036 0.907695C11.9693 0.902747 12.0238 0.962119 12.0213 1.11799C12.0139 2.4144 12.004 3.7108 12.004 5.00722C12.004 5.26699 11.8283 5.21011 11.6848 5.21011C9.7105 5.21011 7.73619 5.21011 5.76188 5.21011C5.32397 5.21011 5.32892 5.2101 5.33881 5.63564C5.38335 7.38233 5.3784 9.12656 5.33881 10.8733C5.33387 11.1405 5.43035 11.1751 5.65797 11.1726C6.90243 11.1652 8.14689 11.1726 9.39134 11.1652C9.60411 11.1652 9.64865 11.2295 9.64617 11.425C9.63628 12.6818 9.6338 13.9361 9.64122 15.193C9.64122 15.4057 9.55463 15.4453 9.36413 15.4429C8.12957 15.433 6.895 15.4429 5.66292 15.4256C5.40067 15.4231 5.33387 15.4973 5.33634 15.7521C5.3883 19.1936 5.35613 22.6325 5.36108 26.0739C5.36108 26.3189 5.2547 26.3337 5.06172 26.3312C3.69356 26.3164 2.32787 26.3115 0.95971 26.3016C0.885488 26.3016 0.816214 26.3065 0.756836 26.3535V0.920078L0.75931 0.922524Z" fill="white"></path>
  <path d="M90.5784 13.5923C90.4621 13.7382 90.472 13.852 90.4745 13.9609C90.5611 17.3504 90.4918 20.7423 90.514 24.1318C90.5165 24.6538 90.5141 25.1734 90.5215 25.6954C90.5264 25.8958 90.4819 25.9799 90.2469 25.9774C88.9504 25.9651 87.654 25.97 86.3601 25.9799C86.1473 25.9799 86.0805 25.9403 86.0855 25.7103C86.1003 24.8122 86.0879 23.9141 86.0879 23.0135C86.0879 15.7224 86.0879 8.42888 86.0879 1.1378C86.0879 0.529176 86.0879 0.521726 86.6916 0.521726C87.8643 0.521726 89.037 0.536582 90.2097 0.534108C90.472 0.534108 90.571 0.603398 90.6477 0.89039C90.8728 1.74642 91.1697 2.5851 91.4418 3.42876C92.5477 6.87514 93.6537 10.3191 94.7645 13.7654C94.8288 13.9634 94.9105 14.1539 94.9847 14.3468C95.0119 14.3419 95.0391 14.337 95.0639 14.3295C95.0639 14.2034 95.0639 14.0772 95.0639 13.951C95.0639 9.57931 95.0639 5.20762 95.0564 0.835937C95.0564 0.615745 95.101 0.531632 95.3385 0.531632C96.6349 0.541528 97.9313 0.54153 99.2253 0.534108C99.4504 0.534108 99.5147 0.600896 99.5147 0.830984C99.5073 9.10428 99.5073 17.3776 99.5147 25.6484C99.5147 25.8983 99.4553 25.9774 99.1931 25.9725C97.8447 25.9552 96.4988 25.9502 95.1505 25.9626C94.7893 25.9676 94.6359 25.8661 94.5245 25.4925C94.1361 24.1936 93.6858 22.9146 93.2603 21.628C92.4438 19.149 91.6299 16.67 90.8134 14.191C90.7516 14.0005 90.6674 13.8149 90.5784 13.5898V13.5923Z" fill="white"></path>
  <path d="M67.8843 10.9351C67.8843 7.78071 67.8843 4.62627 67.8843 1.47183C67.8843 1.31844 67.8843 1.16505 67.8769 1.01165C67.8596 0.531685 67.8596 0.524237 68.3297 0.521763C69.5544 0.519289 70.7765 0.526711 72.0012 0.521763C72.2684 0.521763 72.3599 0.586104 72.3599 0.878045C72.3501 7.01621 72.3525 13.1544 72.3525 19.2901C72.3525 19.7082 72.3204 20.1288 72.3352 20.5444C72.3674 21.4178 73.0848 22.0858 73.9928 22.113C74.8216 22.1377 75.6232 21.4301 75.69 20.5989C75.7173 20.2649 75.7074 19.9259 75.7074 19.5894C75.7074 13.6863 75.7074 7.78316 75.7049 1.8825C75.7049 1.50397 75.7049 1.12545 75.6876 0.749388C75.6801 0.588574 75.7371 0.531669 75.8954 0.531669C77.2438 0.531669 78.5897 0.531662 79.938 0.524239C80.1087 0.524239 80.1384 0.605897 80.1335 0.754341C80.1211 1.13287 80.1162 1.50892 80.1162 1.88745C80.1162 8.00583 80.1137 14.1217 80.1236 20.2401C80.1285 23.3352 78.0379 25.7845 75.1655 26.3313C71.8923 26.9548 68.869 24.9854 68.0353 21.7642C67.9116 21.2842 67.8745 20.7993 67.8769 20.3094C67.8769 18.7483 67.8769 17.1846 67.8769 15.6235C67.8769 14.0624 67.8769 12.4988 67.8769 10.9376H67.8819L67.8843 10.9351Z" fill="white"></path>
  <path d="M33.5961 13.2533C33.5961 9.13648 33.5961 5.02209 33.5911 0.905239C33.5911 0.642987 33.6356 0.541555 33.9325 0.539081C35.939 0.524237 37.9455 0.484661 39.9495 0.548987C42.5027 0.633106 44.764 2.39957 45.4988 4.82663C45.6423 5.30166 45.714 5.7767 45.714 6.27151C45.714 7.81286 45.7215 9.35667 45.7264 10.898C45.7338 12.5705 45.098 13.9955 44.0218 15.2474C43.9278 15.3563 43.8437 15.4849 43.7274 15.5592C43.3241 15.8165 43.334 16.1133 43.4701 16.5463C44.4325 19.5993 45.3603 22.6622 46.3004 25.7227C46.34 25.8488 46.4266 25.9824 46.1742 25.9799C44.8877 25.97 43.6037 25.975 42.3172 25.9651C41.8273 25.9602 41.8421 25.9478 41.7184 25.4777C41.4364 24.3916 41.1395 23.3104 40.85 22.2268C40.1424 19.5672 39.4349 16.9051 38.7248 14.2454C38.6753 14.0624 38.6654 13.9683 38.9005 13.8991C40.4443 13.4488 41.4512 12.1449 41.4784 10.5417C41.5007 9.23542 41.4958 7.92665 41.4809 6.62034C41.471 5.59855 40.808 4.89591 39.7887 4.76726C39.2221 4.69551 38.6605 4.81428 38.0939 4.7846C37.9529 4.77717 37.9281 4.87365 37.9281 4.98746C37.9281 5.22249 37.9281 5.45752 37.9281 5.69256C37.9281 12.3206 37.9306 18.9511 37.9331 25.5791C37.9331 25.97 37.9331 25.9725 37.5323 25.9701C36.2977 25.9651 35.0632 25.9527 33.8286 25.9602C33.6282 25.9602 33.5862 25.9107 33.5886 25.7276C33.5985 25.0645 33.5911 24.399 33.5911 23.736C33.5911 20.2426 33.5911 16.7492 33.5911 13.2558L33.5961 13.2533Z" fill="white"></path>
  <path d="M27.6707 13.2905C27.6707 15.6607 27.6707 18.0283 27.6707 20.3985C27.6707 23.3723 25.3822 25.9825 22.4059 26.3338C18.769 26.7618 16.0203 24.2358 15.5923 21.1234C15.4686 20.2129 15.5329 19.2876 15.5329 18.3697C15.5379 14.2554 15.5032 10.141 15.57 6.02659C15.6072 3.76777 16.7526 2.07798 18.7171 0.957225C19.5657 0.472307 20.4934 0.276855 21.4905 0.276855C22.4678 0.276855 23.3856 0.412929 24.2664 0.833521C25.976 1.64749 26.978 3.02308 27.4802 4.79699C27.6311 5.33139 27.6781 5.87568 27.6732 6.42987C27.6608 8.71591 27.6682 11.0044 27.6682 13.2905H27.6707ZM23.3832 13.2286C23.3832 13.2286 23.3658 13.2286 23.3584 13.2286C23.3584 11.6452 23.3584 10.0643 23.3584 8.48088C23.3584 7.69413 23.3931 6.90737 23.3634 6.12309C23.3312 5.24479 22.7671 4.64606 21.9185 4.50999C21.0551 4.37391 20.2411 4.82421 19.9294 5.61097C19.8007 5.9326 19.8057 6.26907 19.8057 6.60555C19.8106 10.8931 19.818 15.1807 19.823 19.4707C19.823 19.8171 19.7883 20.1634 19.8279 20.5123C19.964 21.6553 21.1144 22.3777 22.208 22.0042C22.9675 21.7444 23.3832 21.0863 23.3832 20.1511C23.3832 17.8428 23.3832 15.5369 23.3832 13.2286Z" fill="white"></path>
  <path d="M104.822 13.2608C104.822 9.10437 104.825 4.94792 104.815 0.791483C104.815 0.511913 104.958 0.531694 105.139 0.531694C108.172 0.531694 111.208 0.531694 114.241 0.531694C114.612 0.531694 114.981 0.549027 115.352 0.546553C115.51 0.546553 115.562 0.596031 115.562 0.759319C115.557 2.01615 115.555 3.2705 115.562 4.52732C115.562 4.71535 115.503 4.77225 115.312 4.76978C113.39 4.75988 111.468 4.7599 109.543 4.75247C109.139 4.75247 109.139 4.74751 109.139 5.14337C109.139 6.91975 109.144 8.69614 109.135 10.475C109.135 10.7373 109.194 10.8214 109.473 10.8164C110.624 10.7991 111.777 10.8115 112.927 10.7966C113.165 10.7941 113.222 10.8634 113.219 11.091C113.209 12.3157 113.212 13.5428 113.224 14.7675C113.227 14.9976 113.172 15.0644 112.935 15.0594C111.762 15.0396 110.589 15.0446 109.419 15.0248C109.174 15.0198 109.135 15.1114 109.135 15.3266C109.142 17.3579 109.142 19.3916 109.135 21.4228C109.135 21.6627 109.211 21.7073 109.434 21.7048C111.379 21.6974 113.321 21.7073 115.265 21.6924C115.532 21.6924 115.565 21.7815 115.562 22.0042C115.555 23.209 115.552 24.4139 115.562 25.6188C115.565 25.8711 115.493 25.9528 115.236 25.9528C113.199 25.9528 111.163 25.9627 109.127 25.9676C107.779 25.9701 106.433 25.9627 105.084 25.975C104.857 25.975 104.812 25.9033 104.815 25.6955C104.82 21.5489 104.82 17.4024 104.82 13.2559C104.82 13.2559 104.82 13.2559 104.822 13.2559V13.2608Z" fill="white"></path>
  <path d="M54.5267 15.3736C54.5267 11.9321 54.5267 8.4932 54.5316 5.05176C54.5316 4.83652 54.4846 4.77467 54.2595 4.77715C53.1189 4.78952 51.9759 4.77713 50.8354 4.7895C50.6077 4.7895 50.5632 4.71035 50.5632 4.50748C50.5682 3.26302 50.5681 2.01607 50.5533 0.771609C50.5533 0.573684 50.6201 0.524205 50.7982 0.526679C51.1693 0.531627 51.538 0.521726 51.9091 0.521726C55.3233 0.521726 58.7375 0.521726 62.1493 0.521726C62.5864 0.521726 62.8049 0.735342 62.8049 1.16253C62.8049 2.26597 62.8 3.36693 62.8099 4.47036C62.8099 4.69798 62.7703 4.79692 62.508 4.79197C61.3675 4.76971 60.2269 4.7722 59.0839 4.75241C58.8835 4.74994 58.8019 4.79942 58.8043 5.00229C58.8093 5.45258 58.7994 5.90037 58.7994 6.35065C58.7994 12.375 58.7994 18.3994 58.8019 24.4213C58.8019 24.8592 58.8167 25.2996 58.8315 25.7375C58.839 25.9205 58.7746 25.9799 58.5792 25.9774C57.3149 25.9675 56.0507 25.9675 54.784 25.975C54.5935 25.975 54.5143 25.9428 54.5143 25.7251C54.5217 22.2738 54.5192 18.8224 54.5192 15.3736H54.5267Z" fill="white"></path>
</svg>
