<?xml version="1.0" encoding="UTF-8"?>
<svg xmlns="http://www.w3.org/2000/svg" width="229" height="27" viewBox="0 0 229 27" fill="none">
  <path d="M34.1566 25.919C32.9156 25.919 31.6705 25.9107 30.4295 25.9231C30.168 25.9231 30.1016 25.8775 30.1514 25.6035C30.6412 22.9431 31.1143 20.2786 31.5916 17.614C31.7991 16.4477 31.7991 16.456 30.6246 16.4602C28.7071 16.4685 26.7937 16.4685 24.8763 16.4478C24.5276 16.4478 24.3782 16.539 24.3325 16.8794C23.959 19.5107 23.4153 22.1089 22.9671 24.7278C22.9546 24.7942 22.9546 24.8648 22.9505 24.9312C22.8965 25.8899 22.8965 25.9024 21.9419 25.9024C19.6301 25.9024 17.3142 25.8899 15.0024 25.9024C14.6413 25.9024 14.5749 25.8235 14.6413 25.4708C15.2888 21.918 15.9155 18.3652 16.5464 14.8125C17.198 11.1228 17.8455 7.43304 18.4929 3.74748C18.6382 2.9257 18.7835 2.10394 18.9163 1.28216C18.9827 0.879571 19.1279 0.692789 19.6094 0.696939C21.9751 0.730143 24.3367 0.72185 26.7024 0.705248C27.1299 0.705248 27.2212 0.800712 27.1382 1.2282C26.6568 3.76825 26.2168 6.32077 25.7478 8.86497C25.5694 9.84031 25.5569 9.83199 26.5904 9.83199C28.5245 9.83199 30.4586 9.83202 32.3885 9.85692C32.7828 9.86107 32.9322 9.71577 32.9986 9.35053C33.4012 7.08856 33.8162 4.8266 34.2313 2.56878C34.3143 2.11638 34.4471 1.67229 34.4969 1.21574C34.5384 0.817301 34.6795 0.696943 35.0987 0.701094C37.5142 0.725996 39.9298 0.709415 42.3495 0.721866C42.5072 0.721866 42.8351 0.54337 42.7479 1.00407C42.3163 3.31169 41.9095 5.62766 41.4986 7.93943C40.5772 13.115 39.6559 18.2947 38.7303 23.4744C38.6058 24.1592 38.4647 24.844 38.3568 25.533C38.3111 25.8235 38.1949 25.9231 37.8878 25.919C36.6468 25.8982 35.4017 25.9107 34.1607 25.9107C34.1607 25.9148 34.1607 25.919 34.1607 25.9231L34.1566 25.919Z" fill="white"></path>
  <path d="M155.874 0.286014C158.227 0.211307 160.336 0.605622 162.282 1.61002C165.237 3.13322 166.864 5.60684 167.304 8.84415C167.852 12.8784 167.242 16.7341 165.175 20.2786C163.141 23.7649 159.921 25.5247 155.974 26.2053C153.72 26.5955 151.512 26.5042 149.308 25.9854C145.017 24.981 142.178 21.7395 141.746 17.3857C141.464 14.5136 141.713 11.6955 142.701 8.977C144.373 4.36589 147.665 1.57264 152.541 0.59314C153.699 0.360717 154.857 0.252807 155.878 0.28186L155.874 0.286014ZM150.155 15.655C150.155 15.9953 150.146 16.3356 150.155 16.676C150.2 18.1618 151.159 19.5813 152.467 19.8594C153.886 20.1582 155.285 20.071 156.434 18.9878C156.899 18.5478 157.314 18.0581 157.572 17.4812C158.655 15.0241 159.215 12.4633 158.937 9.778C158.784 8.29215 157.846 7.15077 156.638 6.85609C154.558 6.34974 152.716 7.12589 151.707 9.00603C150.595 11.0812 150.234 13.3391 150.151 15.655H150.155Z" fill="white"></path>
  <path d="M51.6657 0.713511C52.8735 0.713511 54.0813 0.725955 55.289 0.705202C55.6584 0.701052 55.7746 0.792359 55.7041 1.17005C55.3264 3.17469 54.9404 5.1835 54.6001 7.19645C54.0854 10.2345 53.3632 13.2353 53.0395 16.3024C52.9606 17.0453 53.0271 17.7717 53.2304 18.4772C53.5168 19.4816 54.4797 20.1457 55.7124 20.2453C57.5925 20.3947 58.9538 19.5522 59.6096 17.7966C60.1948 16.2236 60.4231 14.5634 60.7219 12.924C61.3735 9.33808 62.021 5.75626 62.6684 2.17031C62.7307 1.81752 62.7764 1.46472 62.8179 1.10778C62.8511 0.817251 62.9922 0.709361 63.2952 0.713511C65.7481 0.721812 68.1968 0.725963 70.6497 0.713511C71.0232 0.713511 71.0896 0.846314 71.0274 1.17005C70.7451 2.70985 70.4712 4.24966 70.2014 5.79361C69.5747 9.34636 68.9563 12.9033 68.3172 16.4519C67.9561 18.4565 67.4082 20.3947 66.2585 22.1296C65.0383 23.9765 63.2786 25.0473 61.1909 25.7031C59.6594 26.1887 58.074 26.2759 56.4968 26.3921C53.936 26.5789 51.4374 26.2883 49.0883 25.1968C46.2951 23.9018 44.9877 21.6399 44.8009 18.664C44.6598 16.4062 45.1745 14.2273 45.5605 12.0317C46.1789 8.51214 46.8969 5.00917 47.4282 1.47302C47.5361 0.742546 47.5527 0.725975 48.2956 0.725975C49.4162 0.725975 50.541 0.725975 51.6616 0.725975L51.6657 0.713511Z" fill="white"></path>
  <path d="M127.348 19.4277C126.501 19.4277 125.775 19.4402 125.053 19.4236C124.729 19.4153 124.559 19.4817 124.509 19.8511C124.26 21.7395 123.746 23.5864 123.6 25.4914C123.58 25.782 123.434 25.8775 123.177 25.8858C122.799 25.8982 122.417 25.919 122.04 25.919C119.919 25.919 117.794 25.8982 115.673 25.9106C115.291 25.9106 115.254 25.8028 115.316 25.4707C115.735 23.1756 116.134 20.8803 116.54 18.581C117.503 13.1523 118.466 7.71939 119.429 2.29066C119.496 1.90467 119.537 1.51456 119.595 1.12857C119.641 0.829742 119.803 0.709376 120.126 0.709376C123.542 0.721827 126.962 0.680301 130.378 0.738407C131.789 0.763309 133.192 0.991622 134.553 1.40251C137.338 2.2492 139.185 4.03386 139.617 6.8935C140.181 10.6289 139.513 14.1027 136.595 16.8379C135.08 18.2614 133.179 18.9172 131.15 19.2202C129.855 19.4111 128.543 19.5107 127.352 19.4319L127.348 19.4277ZM128.294 7.25873C127.896 7.25873 127.502 7.27118 127.103 7.25458C126.846 7.24213 126.742 7.33341 126.705 7.59074C126.614 8.2299 126.493 8.86495 126.373 9.49996C126.161 10.604 125.933 11.6997 125.729 12.8037C125.692 13.007 125.563 13.2934 125.991 13.3142C126.954 13.3557 127.921 13.4179 128.884 13.2934C131.125 13.0029 132.341 11.2597 131.826 9.07246C131.611 8.15937 130.884 7.50358 129.946 7.33757C129.398 7.24211 128.846 7.28779 128.294 7.25873Z" fill="white"></path>
  <path d="M181.569 0.286093C183.694 0.219687 185.612 0.506057 187.413 1.31539C189.086 2.06246 190.19 3.34079 190.787 5.05906C190.908 5.4077 190.887 5.54883 190.472 5.65259C188.389 6.18385 186.313 6.74826 184.238 7.32517C183.856 7.43308 183.661 7.34593 183.441 7.0222C182.694 5.92234 181.109 5.5239 179.893 6.0842C179.229 6.38718 179.009 6.98487 178.938 7.61988C178.867 8.22584 179.17 8.69898 179.71 9.01442C180.714 9.60377 181.847 9.85696 182.939 10.2222C184.674 10.7991 186.309 11.542 187.554 12.9282C188.401 13.8662 188.936 14.9619 189.111 16.2071C189.297 17.5518 189.285 18.8965 188.932 20.2164C188.156 23.1258 186.102 24.8026 183.317 25.6285C180.789 26.3797 178.203 26.6329 175.547 26.2428C173.862 25.9979 172.289 25.5538 170.845 24.6697C169.446 23.8106 168.616 22.5281 168.051 21.0381C167.877 20.5691 168.234 20.5567 168.491 20.4903C170.222 20.0296 171.953 19.5855 173.684 19.1331C174.032 19.0418 174.381 18.9339 174.713 18.8011C174.954 18.7015 175.082 18.7471 175.215 18.9671C176.008 20.2786 177.187 20.8597 178.726 20.7642C179.722 20.7019 180.453 20.1209 180.648 19.2078C180.802 18.4856 180.291 17.668 179.415 17.2862C178.577 16.9209 177.676 16.7383 176.813 16.452C175.34 15.9664 173.966 15.294 172.891 14.1609C170.957 12.1231 170.513 9.69508 171.11 7.03882C171.94 3.33665 174.464 1.40257 178.062 0.618146C179.266 0.356671 180.482 0.244593 181.561 0.290248L181.569 0.286093Z" fill="white"></path>
  <path d="M84.9647 0.713557C87.7787 0.713557 90.5927 0.721849 93.4067 0.705248C93.8673 0.705248 93.9628 0.833896 93.884 1.26139C93.5353 3.17058 93.2074 5.08394 92.892 6.99728C92.8422 7.29196 92.7177 7.42059 92.4313 7.43304C92.2404 7.44135 92.0536 7.44966 91.8627 7.44966C89.0861 7.44966 86.3053 7.50777 83.5287 7.39986C83.1884 7.38741 83.0721 7.48702 82.9767 7.81905C82.6073 9.13473 82.5948 10.5168 82.2172 11.8325C82.1051 12.2227 82.3998 12.177 82.6405 12.177C84.6783 12.177 86.7162 12.1853 88.7499 12.1687C89.1317 12.1687 89.2272 12.2185 89.1442 12.6335C88.8039 14.2646 88.5258 15.9123 88.2145 17.5476C88.036 18.4773 88.0277 18.4566 87.0648 18.469C85.2179 18.4939 83.371 18.523 81.524 18.4482C81.1671 18.4358 81.026 18.5229 80.9637 18.9048C80.5902 21.1377 80.171 23.3623 79.7767 25.5911C79.7311 25.8484 79.6066 25.9148 79.3575 25.9148C76.8548 25.9148 74.3521 25.9148 71.8494 25.9273C71.5631 25.9273 71.5548 25.836 71.6004 25.5869C72.4139 21.0298 73.2149 16.4685 74.0201 11.9072C74.6427 8.38765 75.2818 4.86813 75.8919 1.34858C75.9749 0.858833 76.1617 0.696943 76.6847 0.701093C79.4447 0.730146 82.2089 0.713557 84.9689 0.713557H84.9647Z" fill="white"></path>
  <path d="M106.843 0.713561C109.674 0.713561 112.504 0.721854 115.335 0.705252C115.708 0.705252 115.825 0.804856 115.758 1.16594C115.393 3.10418 115.024 5.04244 114.683 6.98898C114.613 7.38742 114.43 7.45797 114.065 7.45382C111.147 7.43722 108.234 7.44965 105.316 7.42889C104.922 7.42889 104.756 7.52022 104.726 7.91451C104.627 9.20529 104.241 10.4546 104.158 11.7495C104.137 12.0857 104.237 12.1853 104.581 12.1811C106.549 12.1645 108.516 12.1811 110.483 12.1687C110.865 12.1687 111.031 12.1977 110.94 12.6709C110.587 14.4929 110.28 16.3191 109.977 18.1494C109.931 18.4358 109.782 18.4732 109.558 18.469C107.557 18.4358 105.557 18.5769 103.556 18.4441C103.104 18.415 102.859 18.4939 102.78 18.9878C102.431 21.1543 102.045 23.3167 101.688 25.4791C101.647 25.7281 101.622 25.9024 101.311 25.8982C98.7582 25.8941 96.2015 25.8941 93.649 25.8982C93.3295 25.8982 93.371 25.7198 93.4166 25.5289C93.9105 23.4039 94.201 21.2456 94.5912 19.0998C95.496 14.1277 96.351 9.14301 97.2267 4.16252C97.3969 3.19133 97.5878 2.22017 97.7413 1.24483C97.8077 0.842236 97.9696 0.688638 98.4137 0.692789C101.228 0.713541 104.042 0.705252 106.851 0.705252L106.843 0.713561Z" fill="white"></path>
  <path d="M196.465 7.44553C195.498 7.44553 194.531 7.42894 193.564 7.45384C193.203 7.46214 193.169 7.33763 193.223 7.03465C193.497 5.57785 193.75 4.12104 194.012 2.6601C194.099 2.1745 194.207 1.6889 194.261 1.2033C194.307 0.784109 194.522 0.705272 194.917 0.705272C200.682 0.717723 206.447 0.713581 212.211 0.713581C213.145 0.713581 214.075 0.726028 215.009 0.709426C215.386 0.701125 215.536 0.726003 215.44 1.2033C215.063 3.08759 214.718 4.98435 214.428 6.88524C214.349 7.41234 214.1 7.4663 213.676 7.45799C212.02 7.43724 210.365 7.45385 208.708 7.4165C208.223 7.40405 208.011 7.54101 207.928 8.03491C207.297 11.7246 206.633 15.4101 205.982 19.0999C205.6 21.2622 205.21 23.4204 204.844 25.587C204.778 25.9895 204.5 25.9065 204.263 25.9065C202.466 25.9148 200.673 25.9149 198.876 25.9149C198.204 25.9149 197.531 25.8982 196.855 25.9024C196.602 25.9024 196.51 25.8277 196.573 25.5704C197.083 23.4329 197.365 21.254 197.764 19.0958C198.337 15.983 198.86 12.8577 199.407 9.74072C199.515 9.12231 199.623 8.49976 199.769 7.88965C199.847 7.54932 199.769 7.42892 199.407 7.43722C198.424 7.45382 197.44 7.44138 196.456 7.44138C196.456 7.44138 196.456 7.44554 196.456 7.44969L196.465 7.44553Z" fill="white"></path>
  <path d="M0.574707 13.2934C0.574707 9.2717 0.583008 5.24998 0.562256 1.23238C0.562256 0.800739 0.678467 0.705272 1.10181 0.705272C5.31032 0.721873 9.52299 0.726024 13.7315 0.705272C14.2379 0.705272 14.3001 0.867148 14.2213 1.28634C13.1629 6.78148 12.2291 12.3015 11.2413 17.8132C10.7847 20.374 10.3033 22.9349 9.84672 25.4957C9.78446 25.8567 9.6392 25.9273 9.27396 25.9273C6.53054 25.9024 3.78712 25.9024 1.0437 25.9273C0.636963 25.9273 0.562256 25.8402 0.562256 25.4666C0.574707 21.4117 0.570557 17.3567 0.570557 13.3018L0.574707 13.2934Z" fill="white"></path>
  <path d="M228.465 13.31C228.465 17.282 228.465 21.2539 228.465 25.2258C228.465 25.8899 228.465 25.8982 227.768 25.8982C223.572 25.8982 219.38 25.8941 215.184 25.8982C214.889 25.8982 214.723 25.8816 214.806 25.5164C215.342 23.1216 215.686 20.6936 216.122 18.2822C216.919 13.8745 217.691 9.46676 218.471 5.05487C218.695 3.7807 218.928 2.50654 219.135 1.23236C219.197 0.850524 219.334 0.696947 219.762 0.701098C222.505 0.72185 225.253 0.72185 227.996 0.701098C228.399 0.701098 228.474 0.821482 228.469 1.19087C228.457 5.22922 228.461 9.27169 228.461 13.31H228.465Z" fill="white"></path>
</svg>
